M48
METRIC
T01C.500126
T02C.8001
T03C.999998
;LEADER: 12 
;HEADER: 
;CODE  : EIA 
;FILE  : shield_STM32F429-1-2.drl for  ... layers TOP and BOTTOM
;DESIGN: shield_STM32F429.brd
;T01 Holesize 1. = 0.500126 Tolerance = +0.000000/-0.000000 PLATED MM Quantity = 3
;T02 Holesize 2. = 0.800100 Tolerance = +0.000000/-0.000000 PLATED MM Quantity = 4
;T03 Holesize 3. = 0.999998 Tolerance = +0.000000/-0.000000 PLATED MM Quantity = 125
%
G90
T01
X02730500Y03619500
X01905000Y04318000
X01905000Y03746500
T02
X03937000Y02349500
X03937000Y04953000
X03937000Y03937000
X03937000Y03365500
T03
X01143000Y02476500
X01143000Y02222500
X01143000Y01968500
X01143000Y01714500
X01143000Y01460500
X01143000Y01206500
X01143000Y00952500
X01143000Y00698500
X01143000Y00444500
X01143000Y00190500
X00508000Y05016500
X00508000Y04762500
X00508000Y04508500
X00508000Y04254500
X00508000Y04000500
X01143000Y05016500
X01143000Y04762500
X01143000Y04508500
X01143000Y04254500
X01143000Y03746500
X01143000Y03492500
X01143000Y03238500
X01143000Y02984500
X01143000Y02730500
X01143000Y06032500
X01143000Y05778500
X01143000Y05524500
X01143000Y05270500
X05715000Y02476500
X05969000Y02476500
X05715000Y02222500
X05969000Y02222500
X05715000Y01968500
X05969000Y01968500
X05715000Y01714500
X05969000Y01714500
X05715000Y01460500
X05969000Y01460500
X05715000Y01206500
X05969000Y01206500
X05715000Y00952500
X05969000Y00952500
X05715000Y00698500
X05969000Y00698500
X05715000Y00444500
X05969000Y00444500
X05715000Y00190500
X05969000Y00190500
X04381500Y04127500
X04381500Y03873500
X04381500Y03619500
X04381500Y03365500
X04381500Y03111500
X01397000Y06032500
X01397000Y05778500
X01397000Y05524500
X01397000Y05270500
X05715000Y04914900
X05969000Y04914900
X05715000Y04660900
X05969000Y04660900
X05715000Y04254500
X05969000Y04254500
X05715000Y04000500
X05969000Y04000500
X05715000Y03746500
X05969000Y03746500
X05715000Y03492500
X05969000Y03492500
X05715000Y03238500
X05969000Y03238500
X05715000Y02984500
X05969000Y02984500
X05715000Y02730500
X05969000Y02730500
X04127500Y06921500
X04127500Y06667500
X04127500Y06413500
X04127500Y06159500
X04127500Y05905500
X01397000Y05016500
X01397000Y04762500
X01397000Y04508500
X01397000Y04254500
X01397000Y03746500
X01397000Y03492500
X01397000Y03238500
X01397000Y02984500
X01397000Y02730500
X05715000Y06946900
X05969000Y06946900
X05715000Y06692900
X05969000Y06692900
X05715000Y06438900
X05969000Y06438900
X05715000Y06184900
X05969000Y06184900
X05715000Y05930900
X05969000Y05930900
X05715000Y05676900
X05969000Y05676900
X05715000Y05422900
X05969000Y05422900
X05715000Y05168900
X05969000Y05168900
X06477000Y06223000
X06477000Y05969000
X06477000Y05715000
X06477000Y05461000
X06477000Y05207000
X01397000Y02476500
X01397000Y02222500
X01397000Y01968500
X01397000Y01714500
X01397000Y01460500
X01397000Y01206500
X01397000Y00952500
X01397000Y00698500
X01397000Y00444500
X01397000Y00190500
X06540500Y04064000
X06540500Y03810000
X06540500Y03556000
X06540500Y03302000
X06540500Y03048000
M30
