G04 ================== begin FILE IDENTIFICATION RECORD ==================*
G04 Layout Name:  M:/Paul MOULINS/STAGE/Cadence/PCB_Nw_Software/PCB/CarteV5.brd*
G04 Film Name:    BOTTOM*
G04 File Format:  Gerber RS274X*
G04 File Origin:  Cadence Allegro 17.2-S014*
G04 Origin Date:  Tue Jul 11 09:24:02 2017*
G04 *
G04 Layer:  ETCH/BOTTOM*
G04 Layer:  PIN/BOTTOM*
G04 Layer:  VIA CLASS/BOTTOM*
G04 *
G04 Offset:    (0.0000 0.0000)*
G04 Mirror:    No*
G04 Mode:      Positive*
G04 Rotation:  0*
G04 FullContactRelief:  No*
G04 UndefLineWidth:     0.0000*
G04 ================== end FILE IDENTIFICATION RECORD ====================*
%FSLAX34Y34*MOMM*%
%IR0*IPPOS*OFA0.00000B0.00000*MIA0B0*SFA1.00000B1.00000*%
%ADD11R,1.524X.6096*%
%ADD14R,.6096X1.524*%
%ADD12O,3.X1.5001*%
%ADD10C,1.8001*%
%ADD13C,1.5999*%
%ADD15C,.6*%
%ADD16C,2.4*%
%ADD17C,1.016*%
%ADD18C,2.3086*%
G75*
%LPD*%
G75*
G36*
G01X100000Y19050D02*
X14645Y54405D01*
X0Y69050D01*
Y1207300D01*
X14645Y1221945D01*
X100000Y1257300D01*
X744550D01*
X829905Y1221945D01*
X844550Y1207300D01*
Y69050D01*
X829905Y54405D01*
X744550Y19050D01*
X100000D01*
G37*
%LPC*%
G75*
G36*
G01X69340Y75694D02*
X326392D01*
Y54608D01*
X69340D01*
Y75694D01*
G37*
G36*
G01X720048Y402708D02*
X705050D01*
G02Y422792I0J10042D01*
G01X720048D01*
G02X729313Y416626I1J-10042D01*
G03X731187I937J392D01*
G02X740452Y422792I9264J-3876D01*
G01X755450D01*
G02Y402708I0J-10042D01*
G01X740452D01*
G02X731187Y408874I-1J10042D01*
G03X729313I-937J-392D01*
G02X720048Y402708I-9264J3876D01*
G37*
G36*
G01Y428108D02*
X705050D01*
G02Y448192I0J10042D01*
G01X720048D01*
G02X729313Y442026I1J-10042D01*
G03X731187I937J392D01*
G02X740452Y448192I9264J-3876D01*
G01X755450D01*
G02Y428108I0J-10042D01*
G01X740452D01*
G02X731187Y434274I-1J10042D01*
G03X729313I-937J-392D01*
G02X720048Y428108I-9264J3876D01*
G37*
G36*
G01Y453508D02*
X705050D01*
G02Y473592I0J10042D01*
G01X720048D01*
G02X729313Y467426I1J-10042D01*
G03X731187I937J392D01*
G02X740452Y473592I9264J-3876D01*
G01X755450D01*
G02Y453508I0J-10042D01*
G01X740452D01*
G02X731187Y459674I-1J10042D01*
G03X729313I-937J-392D01*
G02X720048Y453508I-9264J3876D01*
G37*
G36*
G01X262848Y489068D02*
X247850D01*
G02Y509152I0J10042D01*
G01X262848D01*
G02X272113Y502986I1J-10042D01*
G03X273987I937J392D01*
G02X283252Y509152I9264J-3876D01*
G01X298250D01*
G02Y489068I0J-10042D01*
G01X283252D01*
G02X273987Y495234I-1J10042D01*
G03X272113I-937J-392D01*
G02X262848Y489068I-9264J3876D01*
G37*
G36*
G01X720048Y529708D02*
X705050D01*
G02Y549792I0J10042D01*
G01X720048D01*
G02X729313Y543626I1J-10042D01*
G03X731187I937J392D01*
G02X740452Y549792I9264J-3876D01*
G01X755450D01*
G02Y529708I0J-10042D01*
G01X740452D01*
G02X731187Y535874I-1J10042D01*
G03X729313I-937J-392D01*
G02X720048Y529708I-9264J3876D01*
G37*
G36*
G01Y555108D02*
X705050D01*
G02Y575192I0J10042D01*
G01X720048D01*
G02X729313Y569026I1J-10042D01*
G03X731187I937J392D01*
G02X740452Y575192I9264J-3876D01*
G01X755450D01*
G02Y555108I0J-10042D01*
G01X740452D01*
G02X731187Y561274I-1J10042D01*
G03X729313I-937J-392D01*
G02X720048Y555108I-9264J3876D01*
G37*
G36*
G01X262848Y580508D02*
X247850D01*
G02Y600592I0J10042D01*
G01X262848D01*
G02X272113Y594426I1J-10042D01*
G03X273987I937J392D01*
G02X283252Y600592I9264J-3876D01*
G01X298250D01*
G02Y580508I0J-10042D01*
G01X283252D01*
G02X273987Y586674I-1J10042D01*
G03X272113I-937J-392D01*
G02X262848Y580508I-9264J3876D01*
G37*
G36*
G01X720048D02*
X705050D01*
G02Y600592I0J10042D01*
G01X720048D01*
G02X729313Y594426I1J-10042D01*
G03X731187I937J392D01*
G02X740452Y600592I9264J-3876D01*
G01X755450D01*
G02Y580508I0J-10042D01*
G01X740452D01*
G02X731187Y586674I-1J10042D01*
G03X729313I-937J-392D01*
G02X720048Y580508I-9264J3876D01*
G37*
G36*
G01Y631308D02*
X705050D01*
G02Y651392I0J10042D01*
G01X720048D01*
G02X729313Y645226I1J-10042D01*
G03X731187I937J392D01*
G02X740452Y651392I9264J-3876D01*
G01X755450D01*
G02Y631308I0J-10042D01*
G01X740452D01*
G02X731187Y637474I-1J10042D01*
G03X729313I-937J-392D01*
G02X720048Y631308I-9264J3876D01*
G37*
G36*
G01X262848Y656708D02*
X247850D01*
G02Y676792I0J10042D01*
G01X262848D01*
G02X272113Y670626I1J-10042D01*
G03X273987I937J392D01*
G02X283252Y676792I9264J-3876D01*
G01X298250D01*
G02Y656708I0J-10042D01*
G01X283252D01*
G02X273987Y662874I-1J10042D01*
G03X272113I-937J-392D01*
G02X262848Y656708I-9264J3876D01*
G37*
G36*
G01X720048D02*
X705050D01*
G02Y676792I0J10042D01*
G01X720048D01*
G02X729313Y670626I1J-10042D01*
G03X731187I937J392D01*
G02X740452Y676792I9264J-3876D01*
G01X755450D01*
G02Y656708I0J-10042D01*
G01X740452D01*
G02X731187Y662874I-1J10042D01*
G03X729313I-937J-392D01*
G02X720048Y656708I-9264J3876D01*
G37*
G36*
G01Y682108D02*
X705050D01*
G02Y702192I0J10042D01*
G01X720048D01*
G02X729313Y696026I1J-10042D01*
G03X731187I937J392D01*
G02X740452Y702192I9264J-3876D01*
G01X755450D01*
G02Y682108I0J-10042D01*
G01X740452D01*
G02X731187Y688274I-1J10042D01*
G03X729313I-937J-392D01*
G02X720048Y682108I-9264J3876D01*
G37*
G36*
G01X262848Y707508D02*
X247850D01*
G02Y727592I0J10042D01*
G01X262848D01*
G02X272113Y721426I1J-10042D01*
G03X273987I937J392D01*
G02X283252Y727592I9264J-3876D01*
G01X298250D01*
G02Y707508I0J-10042D01*
G01X283252D01*
G02X273987Y713674I-1J10042D01*
G03X272113I-937J-392D01*
G02X262848Y707508I-9264J3876D01*
G37*
G36*
G01X720048D02*
X705050D01*
G02Y727592I0J10042D01*
G01X720048D01*
G02X729313Y721426I1J-10042D01*
G03X731187I937J392D01*
G02X740452Y727592I9264J-3876D01*
G01X755450D01*
G02Y707508I0J-10042D01*
G01X740452D01*
G02X731187Y713674I-1J10042D01*
G03X729313I-937J-392D01*
G02X720048Y707508I-9264J3876D01*
G37*
G36*
G01X262848Y732908D02*
X247850D01*
G02Y752992I0J10042D01*
G01X262848D01*
G02X272113Y746826I1J-10042D01*
G03X273987I937J392D01*
G02X283252Y752992I9264J-3876D01*
G01X298250D01*
G02Y732908I0J-10042D01*
G01X283252D01*
G02X273987Y739074I-1J10042D01*
G03X272113I-937J-392D01*
G02X262848Y732908I-9264J3876D01*
G37*
G36*
G01X720048D02*
X705050D01*
G02Y752992I0J10042D01*
G01X720048D01*
G02X729313Y746826I1J-10042D01*
G03X731187I937J392D01*
G02X740452Y752992I9264J-3876D01*
G01X755450D01*
G02Y732908I0J-10042D01*
G01X740452D01*
G02X731187Y739074I-1J10042D01*
G03X729313I-937J-392D01*
G02X720048Y732908I-9264J3876D01*
G37*
G36*
G01X262848Y758308D02*
X247850D01*
G02Y778392I0J10042D01*
G01X262848D01*
G02X272113Y772226I1J-10042D01*
G03X273987I937J392D01*
G02X283252Y778392I9264J-3876D01*
G01X298250D01*
G02Y758308I0J-10042D01*
G01X283252D01*
G02X273987Y764474I-1J10042D01*
G03X272113I-937J-392D01*
G02X262848Y758308I-9264J3876D01*
G37*
G36*
G01X720048D02*
X705050D01*
G02Y778392I0J10042D01*
G01X720048D01*
G02X729313Y772226I1J-10042D01*
G03X731187I937J392D01*
G02X740452Y778392I9264J-3876D01*
G01X755450D01*
G02Y758308I0J-10042D01*
G01X740452D01*
G02X731187Y764474I-1J10042D01*
G03X729313I-937J-392D01*
G02X720048Y758308I-9264J3876D01*
G37*
G36*
G01X262848Y783708D02*
X247850D01*
G02Y803792I0J10042D01*
G01X262848D01*
G02X272113Y797626I1J-10042D01*
G03X273987I937J392D01*
G02X283252Y803792I9264J-3876D01*
G01X298250D01*
G02Y783708I0J-10042D01*
G01X283252D01*
G02X273987Y789874I-1J10042D01*
G03X272113I-937J-392D01*
G02X262848Y783708I-9264J3876D01*
G37*
G36*
G01X720048D02*
X705050D01*
G02Y803792I0J10042D01*
G01X720048D01*
G02X729313Y797626I1J-10042D01*
G03X731187I937J392D01*
G02X740452Y803792I9264J-3876D01*
G01X755450D01*
G02Y783708I0J-10042D01*
G01X740452D01*
G02X731187Y789874I-1J10042D01*
G03X729313I-937J-392D01*
G02X720048Y783708I-9264J3876D01*
G37*
G36*
G01X262848Y809108D02*
X247850D01*
G02Y829192I0J10042D01*
G01X262848D01*
G02X272113Y823026I1J-10042D01*
G03X273987I937J392D01*
G02X283252Y829192I9264J-3876D01*
G01X298250D01*
G02Y809108I0J-10042D01*
G01X283252D01*
G02X273987Y815274I-1J10042D01*
G03X272113I-937J-392D01*
G02X262848Y809108I-9264J3876D01*
G37*
G36*
G01X720048D02*
X705050D01*
G02Y829192I0J10042D01*
G01X720048D01*
G02X729313Y823026I1J-10042D01*
G03X731187I937J392D01*
G02X740452Y829192I9264J-3876D01*
G01X755450D01*
G02Y809108I0J-10042D01*
G01X740452D01*
G02X731187Y815274I-1J10042D01*
G03X729313I-937J-392D01*
G02X720048Y809108I-9264J3876D01*
G37*
G36*
G01X262848Y834508D02*
X247850D01*
G02Y854592I0J10042D01*
G01X262848D01*
G02X272113Y848426I1J-10042D01*
G03X273987I937J392D01*
G02X283252Y854592I9264J-3876D01*
G01X298250D01*
G02Y834508I0J-10042D01*
G01X283252D01*
G02X273987Y840674I-1J10042D01*
G03X272113I-937J-392D01*
G02X262848Y834508I-9264J3876D01*
G37*
G36*
G01X720048D02*
X705050D01*
G02Y854592I0J10042D01*
G01X720048D01*
G02X729313Y848426I1J-10042D01*
G03X731187I937J392D01*
G02X740452Y854592I9264J-3876D01*
G01X755450D01*
G02Y834508I0J-10042D01*
G01X740452D01*
G02X731187Y840674I-1J10042D01*
G03X729313I-937J-392D01*
G02X720048Y834508I-9264J3876D01*
G37*
G36*
G01X262848Y859908D02*
X247850D01*
G02Y879992I0J10042D01*
G01X262848D01*
G02X272113Y873826I1J-10042D01*
G03X273987I937J392D01*
G02X283252Y879992I9264J-3876D01*
G01X298250D01*
G02Y859908I0J-10042D01*
G01X283252D01*
G02X273987Y866074I-1J10042D01*
G03X272113I-937J-392D01*
G02X262848Y859908I-9264J3876D01*
G37*
G36*
G01X720048D02*
X705050D01*
G02Y879992I0J10042D01*
G01X720048D01*
G02X729313Y873826I1J-10042D01*
G03X731187I937J392D01*
G02X740452Y879992I9264J-3876D01*
G01X755450D01*
G02Y859908I0J-10042D01*
G01X740452D01*
G02X731187Y866074I-1J10042D01*
G03X729313I-937J-392D01*
G02X720048Y859908I-9264J3876D01*
G37*
G36*
G01X262848Y885308D02*
X247850D01*
G02Y905392I0J10042D01*
G01X262848D01*
G02X272113Y899226I1J-10042D01*
G03X273987I937J392D01*
G02X283252Y905392I9264J-3876D01*
G01X298250D01*
G02Y885308I0J-10042D01*
G01X283252D01*
G02X273987Y891474I-1J10042D01*
G03X272113I-937J-392D01*
G02X262848Y885308I-9264J3876D01*
G37*
G36*
G01X720048D02*
X705050D01*
G02Y905392I0J10042D01*
G01X720048D01*
G02X729313Y899226I1J-10042D01*
G03X731187I937J392D01*
G02X740452Y905392I9264J-3876D01*
G01X755450D01*
G02Y885308I0J-10042D01*
G01X740452D01*
G02X731187Y891474I-1J10042D01*
G03X729313I-937J-392D01*
G02X720048Y885308I-9264J3876D01*
G37*
G36*
G01Y910708D02*
X705050D01*
G02Y930792I0J10042D01*
G01X720048D01*
G02X729313Y924626I1J-10042D01*
G03X731187I937J392D01*
G02X740452Y930792I9264J-3876D01*
G01X755450D01*
G02Y910708I0J-10042D01*
G01X740452D01*
G02X731187Y916874I-1J10042D01*
G03X729313I-937J-392D01*
G02X720048Y910708I-9264J3876D01*
G37*
G36*
G01Y936108D02*
X705050D01*
G02Y956192I0J10042D01*
G01X720048D01*
G02X729313Y950026I1J-10042D01*
G03X731187I937J392D01*
G02X740452Y956192I9264J-3876D01*
G01X755450D01*
G02Y936108I0J-10042D01*
G01X740452D01*
G02X731187Y942274I-1J10042D01*
G03X729313I-937J-392D01*
G02X720048Y936108I-9264J3876D01*
G37*
G36*
G01X262848Y961508D02*
X247850D01*
G02Y981592I0J10042D01*
G01X262848D01*
G02X272113Y975426I1J-10042D01*
G03X273987I937J392D01*
G02X283252Y981592I9264J-3876D01*
G01X298250D01*
G02Y961508I0J-10042D01*
G01X283252D01*
G02X273987Y967674I-1J10042D01*
G03X272113I-937J-392D01*
G02X262848Y961508I-9264J3876D01*
G37*
G36*
G01X720048D02*
X705050D01*
G02Y981592I0J10042D01*
G01X720048D01*
G02X729313Y975426I1J-10042D01*
G03X731187I937J392D01*
G02X740452Y981592I9264J-3876D01*
G01X755450D01*
G02Y961508I0J-10042D01*
G01X740452D01*
G02X731187Y967674I-1J10042D01*
G03X729313I-937J-392D01*
G02X720048Y961508I-9264J3876D01*
G37*
G36*
G01X262848Y986908D02*
X247850D01*
G02Y1006992I0J10042D01*
G01X262848D01*
G02X272113Y1000826I1J-10042D01*
G03X273987I937J392D01*
G02X283252Y1006992I9264J-3876D01*
G01X298250D01*
G02Y986908I0J-10042D01*
G01X283252D01*
G02X273987Y993074I-1J10042D01*
G03X272113I-937J-392D01*
G02X262848Y986908I-9264J3876D01*
G37*
G36*
G01X244457Y93978D02*
X187343D01*
X159492Y121829D01*
X159268Y121819D01*
G02X170281Y132832I-518J11531D01*
G01X170271Y132608D01*
X170889Y131990D01*
G03X172622Y132760I718J718D01*
G02X195681Y132832I11528J591D01*
G01X195671Y132608D01*
X196289Y131990D01*
G03X198022Y132760I718J718D01*
G02X216005Y123780I11528J590D01*
G03X216573Y121922I568J-842D01*
G01X232882D01*
X316228Y205268D01*
Y342362D01*
G02X331472I7622J6888D01*
G01Y205004D01*
G03X333206Y204286I1016J0D01*
G01X341628Y212707D01*
Y364488D01*
X304789D01*
G02X298250Y362068I-6538J7622D01*
G01X283252D01*
G02X273987Y368234I-1J10042D01*
G03X272113I-937J-392D01*
G02X262848Y362068I-9264J3876D01*
G01X247850D01*
G02Y382152I0J10042D01*
G01X262848D01*
G02X272113Y375986I1J-10042D01*
G03X273987I937J392D01*
G02X283252Y382152I9264J-3876D01*
G01X298250D01*
G02X304789Y379732I1J-10042D01*
G01X341628D01*
Y398245D01*
G03X339894Y398963I-1016J0D01*
G01X334112Y393182D01*
X334099Y392992D01*
G02X314310Y389888I-10249J707D01*
G01X304789D01*
G02X298250Y387468I-6538J7622D01*
G01X283252D01*
G02X273987Y393634I-1J10042D01*
G03X272113I-937J-392D01*
G02X262848Y387468I-9264J3876D01*
G01X247850D01*
G02Y407552I0J10042D01*
G01X262848D01*
G02X272113Y401386I1J-10042D01*
G03X273987I937J392D01*
G02X283252Y407552I9264J-3876D01*
G01X298250D01*
G02X304789Y405132I1J-10042D01*
G01X324504D01*
X410643Y491271D01*
Y775752D01*
X570228Y935337D01*
Y946150D01*
G02X573324Y952282I7622J-1D01*
G01X573530Y952435D01*
Y953770D01*
G02X574802Y955042I1272J0D01*
G01X580898D01*
G02X581462Y954910I0J-1271D01*
G03X582928Y955821I450J911D01*
G01Y963928D01*
X365142D01*
X314342Y1014728D01*
X206393D01*
X176528Y1044593D01*
Y1141728D01*
X163802D01*
X133843Y1111769D01*
G03X134463Y1110039I718J-719D01*
G02X132832Y1087019I-1113J-11489D01*
G01X132608Y1087029D01*
X131990Y1086411D01*
G03X132760Y1084678I718J-718D01*
G02X126013Y1064239I590J-11528D01*
G03X124351Y1063455I-646J-784D01*
G01Y1057445D01*
G03X126013Y1056661I1016J0D01*
G02Y1038839I7337J-8911D01*
G03X124351Y1038055I-646J-784D01*
G01Y1032045D01*
G03X126013Y1031261I1016J0D01*
G02X132760Y1010822I7337J-8911D01*
G03X131990Y1009089I-52J-1015D01*
G01X132608Y1008471D01*
X132832Y1008481D01*
G02Y985419I518J-11531D01*
G01X132608Y985429D01*
X131990Y984811D01*
G03X132760Y983078I718J-718D01*
G02X142019Y979172I590J-11528D01*
G01X200207D01*
X236333Y943046D01*
G03X238043Y943984I718J719D01*
G02X247850Y956192I9806J2166D01*
G01X262848D01*
G02X272113Y950026I1J-10042D01*
G03X273987I937J392D01*
G02X283252Y956192I9264J-3876D01*
G01X298250D01*
G02Y936108I0J-10042D01*
G01X283252D01*
G02X273987Y942274I-1J10042D01*
G03X272113I-937J-392D01*
G02X262848Y936108I-9264J3876D01*
G01X247850D01*
G02X245683Y936344I-3J10042D01*
G03X244746Y934633I-219J-992D01*
G01X248587Y930792D01*
X262848D01*
G02X272113Y924626I1J-10042D01*
G03X273987I937J392D01*
G02X283252Y930792I9264J-3876D01*
G01X298250D01*
G02Y910708I0J-10042D01*
G01X283252D01*
G02X273987Y916874I-1J10042D01*
G03X272113I-937J-392D01*
G02X262848Y910708I-9264J3876D01*
G01X247850D01*
G02X237852Y919804I0J10042D01*
G01X237834Y919986D01*
X193893Y963928D01*
X142019D01*
G02X126013Y962639I-8669J7622D01*
G03X124351Y961855I-646J-784D01*
G01Y930445D01*
G03X126013Y929661I1016J0D01*
G02Y911839I7337J-8911D01*
G03X124351Y911055I-646J-784D01*
G01Y905045D01*
G03X126013Y904261I1016J0D01*
G02Y886439I7337J-8911D01*
G03X124351Y885655I-646J-784D01*
G01Y879645D01*
G03X126013Y878861I1016J0D01*
G02Y861039I7337J-8911D01*
G03X124351Y860255I-646J-784D01*
G01Y854245D01*
G03X126013Y853461I1016J0D01*
G02X132760Y833022I7337J-8911D01*
G03X131990Y831289I-52J-1015D01*
G01X132608Y830671D01*
X132832Y830681D01*
G02Y807619I518J-11531D01*
G01X132608Y807629D01*
X131990Y807011D01*
G03X132760Y805278I718J-718D01*
G02X144881Y793232I590J-11528D01*
G01X144871Y793008D01*
X238107Y699772D01*
X241308D01*
X241449Y699889D01*
G02X247850Y702192I6399J-7739D01*
G01X262848D01*
G02X272113Y696026I1J-10042D01*
G03X273987I937J392D01*
G02X283252Y702192I9264J-3876D01*
G01X298250D01*
G02Y682108I0J-10042D01*
G01X283252D01*
G02X273987Y688274I-1J10042D01*
G03X272113I-937J-392D01*
G02X262848Y682108I-9264J3876D01*
G01X247850D01*
G02X241311Y684528I-1J10042D01*
G01X231793D01*
X134092Y782229D01*
X133868Y782219D01*
G02X126013Y784839I-518J11531D01*
G03X124351Y784055I-646J-784D01*
G01Y752645D01*
G03X126013Y751861I1016J0D01*
G02Y734039I7337J-8911D01*
G03X124351Y733255I-646J-784D01*
G01Y727245D01*
G03X126013Y726461I1016J0D01*
G02Y708639I7337J-8911D01*
G03X124351Y707855I-646J-784D01*
G01Y701845D01*
G03X126013Y701061I1016J0D01*
G02Y683239I7337J-8911D01*
G03X124351Y682455I-646J-784D01*
G01Y676445D01*
G03X126013Y675661I1016J0D01*
G02X132760Y655222I7337J-8911D01*
G03X131990Y653489I-52J-1015D01*
G01X132608Y652871D01*
X132832Y652881D01*
G02X144878Y640760I518J-11531D01*
G03X146611Y639990I1015J-52D01*
G01X155593Y648972D01*
X241311D01*
G02X247850Y651392I6538J-7622D01*
G01X262848D01*
G02X272113Y645226I1J-10042D01*
G03X273987I937J392D01*
G02X283252Y651392I9264J-3876D01*
G01X298250D01*
G02Y631308I0J-10042D01*
G01X283252D01*
G02X273987Y637474I-1J10042D01*
G03X272113I-937J-392D01*
G02X262848Y631308I-9264J3876D01*
G01X247850D01*
G02X241311Y633728I-1J10042D01*
G01X161907D01*
X144871Y616692D01*
X144881Y616468D01*
G02X130734Y604707I-11531J-518D01*
G03X129786Y602999I-230J-990D01*
G01X153315Y579471D01*
G03X155049Y580189I718J718D01*
G01Y597628D01*
X180993Y623572D01*
X241311D01*
G02X247850Y625992I6538J-7622D01*
G01X262848D01*
G02X272113Y619826I1J-10042D01*
G03X273987I937J392D01*
G02X283252Y625992I9264J-3876D01*
G01X298250D01*
G02Y605908I0J-10042D01*
G01X283252D01*
G02X273987Y612074I-1J10042D01*
G03X272113I-937J-392D01*
G02X262848Y605908I-9264J3876D01*
G01X247850D01*
G02X241311Y608328I-1J10042D01*
G01X187307D01*
X170293Y591314D01*
Y464314D01*
X144871Y438892D01*
X144881Y438668D01*
G02X133868Y449681I-11531J-518D01*
G01X134092Y449671D01*
X134710Y450289D01*
G03X133940Y452022I-718J718D01*
G02X133868Y475081I-591J11528D01*
G01X134092Y475071D01*
X134710Y475689D01*
G03X133940Y477422I-718J718D01*
G02X140687Y497861I-590J11528D01*
G03X142349Y498645I646J784D01*
G01Y504655D01*
G03X140687Y505439I-1016J0D01*
G02Y523261I-7337J8911D01*
G03X142349Y524045I646J784D01*
G01Y530055D01*
G03X140687Y530839I-1016J0D01*
G02Y548661I-7337J8911D01*
G03X142349Y549445I646J784D01*
G01Y555455D01*
G03X140687Y556239I-1016J0D01*
G02X132237Y576639I-7337J8911D01*
G03X132858Y578369I-97J1011D01*
G01X113385Y597841D01*
G03X111651Y597123I-718J-718D01*
G01Y419828D01*
X132608Y398871D01*
X132832Y398881D01*
G02X144878Y386760I518J-11531D01*
G03X146611Y385990I1015J-52D01*
G01X163828Y403207D01*
Y441307D01*
X220978Y498457D01*
Y555202D01*
X238429Y572653D01*
X307671D01*
X324803Y555521D01*
Y516888D01*
X304789D01*
G02X298250Y514468I-6538J7622D01*
G01X283252D01*
G02X273987Y520634I-1J10042D01*
G03X272113I-937J-392D01*
G02X262848Y514468I-9264J3876D01*
G01X247850D01*
G02Y534552I0J10042D01*
G01X262848D01*
G02X272113Y528386I1J-10042D01*
G03X273987I937J392D01*
G02X283252Y534552I9264J-3876D01*
G01X298250D01*
G02X304789Y532132I1J-10042D01*
G01X309559D01*
Y549207D01*
X308781Y549985D01*
X308286Y549489D01*
X308274Y549297D01*
G02X298250Y539868I-10024J613D01*
G01X283252D01*
G02X273987Y546034I-1J10042D01*
G03X272113I-937J-392D01*
G02X262848Y539868I-9264J3876D01*
G01X247850D01*
G02X237826Y549297I0J10042D01*
G01X237814Y549489D01*
X237319Y549985D01*
X236222Y548888D01*
Y492143D01*
X179072Y434993D01*
Y396893D01*
X144871Y362692D01*
X144881Y362468D01*
G02X144878Y361360I-11531J-523D01*
G03X146611Y360590I1015J-52D01*
G01X182878Y396857D01*
Y434638D01*
X229572Y481332D01*
X241311D01*
G02X247850Y483752I6538J-7622D01*
G01X262848D01*
G02X272113Y477586I1J-10042D01*
G03X273987I937J392D01*
G02X283252Y483752I9264J-3876D01*
G01X298250D01*
G02Y463668I0J-10042D01*
G01X283252D01*
G02X273987Y469834I-1J10042D01*
G03X272113I-937J-392D01*
G02X262848Y463668I-9264J3876D01*
G01X247850D01*
G02X241311Y466088I-1J10042D01*
G01X235886D01*
X198122Y428324D01*
Y390543D01*
X144871Y337292D01*
X144881Y337068D01*
G02X144878Y335960I-11531J-523D01*
G03X146611Y335190I1015J-52D01*
G01X201928Y390507D01*
Y428288D01*
X229572Y455932D01*
X241311D01*
G02X247850Y458352I6538J-7622D01*
G01X262848D01*
G02X272113Y452186I1J-10042D01*
G03X273987I937J392D01*
G02X283252Y458352I9264J-3876D01*
G01X298250D01*
G02Y438268I0J-10042D01*
G01X283252D01*
G02X273987Y444434I-1J10042D01*
G03X272113I-937J-392D01*
G02X262848Y438268I-9264J3876D01*
G01X247850D01*
G02X241311Y440688I-1J10042D01*
G01X235886D01*
X217172Y421974D01*
Y420585D01*
G03X218906Y419867I1016J0D01*
G01X229572Y430532D01*
X241311D01*
G02X247850Y432952I6538J-7622D01*
G01X262848D01*
G02X272113Y426786I1J-10042D01*
G03X273987I937J392D01*
G02X283252Y432952I9264J-3876D01*
G01X298250D01*
G02Y412868I0J-10042D01*
G01X283252D01*
G02X273987Y419034I-1J10042D01*
G03X272113I-937J-392D01*
G02X262848Y412868I-9264J3876D01*
G01X247850D01*
G02X241311Y415288I-1J10042D01*
G01X235886D01*
X229872Y409274D01*
Y371493D01*
X144871Y286492D01*
X144881Y286268D01*
G02X133868Y297281I-11531J-518D01*
G01X134092Y297271D01*
X134710Y297889D01*
G03X133940Y299622I-718J718D01*
G02X133868Y322681I-591J11528D01*
G01X134092Y322671D01*
X134710Y323289D01*
G03X133940Y325022I-718J718D01*
G02X133868Y348081I-591J11528D01*
G01X134092Y348071D01*
X134710Y348689D01*
G03X133940Y350422I-718J718D01*
G02X133868Y373481I-591J11528D01*
G01X134092Y373471D01*
X134710Y374089D01*
G03X133940Y375822I-718J718D01*
G02X121819Y387868I-590J11528D01*
G01X121829Y388092D01*
X96407Y413514D01*
Y1095891D01*
X157488Y1156972D01*
X176528D01*
Y1185563D01*
X169563Y1192528D01*
X168421D01*
G03X167510Y1191062I0J-1016D01*
G02X167642Y1190498I-1139J-564D01*
G01Y1184402D01*
G02X166370Y1183130I-1272J0D01*
G01X163265D01*
G03X162734Y1181248I0J-1016D01*
G02X164882Y1179276I-3985J-6497D01*
G01X165035Y1179070D01*
X166370D01*
G02X167642Y1177798I0J-1272D01*
G01Y1171702D01*
G02X166370Y1170430I-1272J0D01*
G01X165035D01*
X164882Y1170224D01*
G02X158750Y1167128I-6133J4526D01*
G01X157335D01*
X90172Y1099965D01*
Y161907D01*
X98594Y153486D01*
G03X100328Y154204I718J718D01*
G01Y187307D01*
X151128Y238107D01*
Y282557D01*
X222903Y354332D01*
X241311D01*
G02X247850Y356752I6538J-7622D01*
G01X262848D01*
G02X272113Y350586I1J-10042D01*
G03X273987I937J392D01*
G02X283252Y356752I9264J-3876D01*
G01X298250D01*
G02Y336668I0J-10042D01*
G01X283252D01*
G02X273987Y342834I-1J10042D01*
G03X272113I-937J-392D01*
G02X262848Y336668I-9264J3876D01*
G01X247850D01*
G02X241311Y339088I-1J10042D01*
G01X229217D01*
X166372Y276243D01*
Y231793D01*
X115572Y180993D01*
Y142019D01*
G02X96419Y133868I-7622J-8669D01*
G01X96429Y134092D01*
X74928Y155593D01*
Y1106279D01*
X150491Y1181842D01*
G03X150375Y1183378I-719J718D01*
G02X149858Y1184402I756J1024D01*
G01Y1190498D01*
G02X151130Y1191770I1272J0D01*
G01X154235D01*
G03X154766Y1193652I0J1016D01*
G02X152618Y1195624I3985J6497D01*
G01X152465Y1195830D01*
X151130D01*
G02X149858Y1197102I0J1272D01*
G01Y1203198D01*
G02X149990Y1203762I1271J0D01*
G03X149079Y1205228I-911J450D01*
G01X123807D01*
X71122Y1152543D01*
Y130156D01*
X91222Y110056D01*
X120033D01*
X125728Y115751D01*
Y124681D01*
G02Y142019I7622J8669D01*
G01Y174608D01*
X170178Y219058D01*
Y272397D01*
X226713Y328932D01*
X241311D01*
G02X247850Y331352I6538J-7622D01*
G01X262848D01*
G02X272113Y325186I1J-10042D01*
G03X273987I937J392D01*
G02X283252Y331352I9264J-3876D01*
G01X298250D01*
G02Y311268I0J-10042D01*
G01X283252D01*
G02X273987Y317434I-1J10042D01*
G03X272113I-937J-392D01*
G02X262848Y311268I-9264J3876D01*
G01X247850D01*
G02X241311Y313688I-1J10042D01*
G01X233027D01*
X185422Y266083D01*
Y212744D01*
X140972Y168294D01*
Y142019D01*
G02Y124681I-7622J-8669D01*
G01Y109437D01*
X126347Y94812D01*
X84908D01*
X55878Y123842D01*
Y1158857D01*
X117493Y1220472D01*
X158750D01*
G02X164882Y1217376I-1J-7622D01*
G01X165035Y1217170D01*
X166370D01*
G02X167642Y1215898I0J-1272D01*
G01Y1209802D01*
G02X167510Y1209238I-1271J0D01*
G03X168421Y1207772I911J-450D01*
G01X175877D01*
X191772Y1191877D01*
Y1050907D01*
X212707Y1029972D01*
X320656D01*
X371456Y979172D01*
X655108D01*
X695629Y1019693D01*
X764871D01*
X790893Y993671D01*
Y513614D01*
X765466Y488186D01*
X765448Y488004D01*
G02X755450Y478908I-9998J946D01*
G01X740452D01*
G02X731187Y485074I-1J10042D01*
G03X729313I-937J-392D01*
G02X720048Y478908I-9264J3876D01*
G01X705050D01*
G02Y498992I0J10042D01*
G01X720048D01*
G02X729313Y492826I1J-10042D01*
G03X731187I937J392D01*
G02X740452Y498992I9264J-3876D01*
G01X754713D01*
X758554Y502833D01*
G03X757617Y504544I-718J719D01*
G02X755450Y504308I-2164J9806D01*
G01X740452D01*
G02X731187Y510474I-1J10042D01*
G03X729313I-937J-392D01*
G02X720048Y504308I-9264J3876D01*
G01X705050D01*
G02Y524392I0J10042D01*
G01X720048D01*
G02X729313Y518226I1J-10042D01*
G03X731187I937J392D01*
G02X740452Y524392I9264J-3876D01*
G01X755450D01*
G02X765257Y512184I1J-10042D01*
G03X766967Y511246I992J-219D01*
G01X775649Y519928D01*
Y987357D01*
X767088Y995918D01*
G03X765366Y995360I-719J-718D01*
G02X755450Y986908I-9916J1590D01*
G01X740452D01*
G02X731187Y993074I-1J10042D01*
G03X729313I-937J-392D01*
G02X720048Y986908I-9264J3876D01*
G01X705050D01*
G02X695134Y995360I0J10042D01*
G03X693412Y995918I-1003J-160D01*
G01X661422Y963928D01*
X598172D01*
Y955821D01*
G03X599638Y954910I1016J0D01*
G02X600202Y955042I564J-1139D01*
G01X606298D01*
G02X607570Y953770I0J-1272D01*
G01Y950665D01*
G03X609452Y950134I1016J0D01*
G02X611424Y952282I6497J-3985D01*
G01X611630Y952435D01*
Y953770D01*
G02X612902Y955042I1272J0D01*
G01X618998D01*
G02X620270Y953770I0J-1272D01*
G01Y952435D01*
X620476Y952282D01*
G02X623572Y946150I-4526J-6133D01*
G01Y923943D01*
X445772Y746143D01*
Y485793D01*
X356872Y396893D01*
Y206393D01*
X244457Y93978D01*
G37*
G36*
G01X736273Y42608D02*
X414935D01*
X379158Y78385D01*
Y137515D01*
X518858Y277215D01*
Y749300D01*
G02X546822Y754896I14542J0D01*
G03X548653Y754803I938J391D01*
G02X549754Y742130I10147J-5503D01*
G03X547942Y741499I-796J-631D01*
G01Y623751D01*
G03X549754Y623120I1016J0D01*
G02Y608780I9046J-7170D01*
G03X547942Y608149I-796J-631D01*
G01Y490401D01*
G03X549754Y489770I1016J0D01*
G02Y475430I9046J-7170D01*
G03X547942Y474799I-796J-631D01*
G01Y363401D01*
G03X549754Y362770I1016J0D01*
G02Y348430I9046J-7170D01*
G03X547942Y347799I-796J-631D01*
G01Y265169D01*
X408242Y125469D01*
Y115751D01*
G03X410054Y115120I1016J0D01*
G02Y100780I9046J-7170D01*
G03X408242Y100149I-796J-631D01*
G01Y90431D01*
X426981Y71692D01*
X724227D01*
X741108Y88573D01*
Y100149D01*
G03X739296Y100780I-1016J0D01*
G02X732072Y119348I-9046J7170D01*
G03X733248Y120352I160J1003D01*
G01Y121246D01*
X716278Y138216D01*
Y288907D01*
X796399Y369028D01*
Y371305D01*
G03X794737Y372089I-1016J0D01*
G02X786882Y369469I-7337J8911D01*
G01X786658Y369479D01*
X706122Y288943D01*
Y172215D01*
X655322Y121415D01*
Y116619D01*
G02X640078I-7622J-8669D01*
G01Y127729D01*
X690878Y178529D01*
Y295257D01*
X775879Y380258D01*
X775869Y380482D01*
G02X794737Y389911I11531J518D01*
G03X796399Y390695I646J784D01*
G01Y396705D01*
G03X794737Y397489I-1016J0D01*
G02Y415311I-7337J8911D01*
G03X796399Y416095I646J784D01*
G01Y997722D01*
X674092Y1120029D01*
X673868Y1120019D01*
G02X663975Y1124816I-518J11531D01*
G03X662325I-825J-593D01*
G02X643575I-9375J6734D01*
G03X641925I-825J-593D01*
G02X623175I-9375J6734D01*
G03X621525I-825J-593D01*
G02X613263Y1120061I-9375J6734D01*
G03X612642Y1118331I97J-1011D01*
G01X623572Y1107401D01*
Y1055033D01*
G02X616386Y1037217I-7622J-7283D01*
G01X616188Y1037209D01*
X610872Y1031893D01*
Y1009671D01*
G03X612338Y1008760I1016J0D01*
G02X612902Y1008892I564J-1139D01*
G01X618998D01*
G02X620270Y1007620I0J-1272D01*
G01Y992380D01*
G02X618998Y991108I-1272J0D01*
G01X612902D01*
G02X611630Y992380I0J1272D01*
G01Y995485D01*
G03X609748Y996016I-1016J0D01*
G02X607776Y993868I-6497J3985D01*
G01X607570Y993715D01*
Y992380D01*
G02X606298Y991108I-1272J0D01*
G01X600202D01*
G02X598930Y992380I0J1272D01*
G01Y993715D01*
X598724Y993868D01*
G02X597647Y994833I4525J6133D01*
G03X596153I-747J-689D01*
G02X595076Y993868I-5602J5168D01*
G01X594870Y993715D01*
Y992380D01*
G02X593598Y991108I-1272J0D01*
G01X587502D01*
G02X586230Y992380I0J1272D01*
G01Y993715D01*
X586024Y993868D01*
G02X584052Y996016I4525J6133D01*
G03X582170Y995485I-866J-531D01*
G01Y992380D01*
G02X580898Y991108I-1272J0D01*
G01X574802D01*
G02X573530Y992380I0J1272D01*
G01Y1007620D01*
G02X574802Y1008892I1272J0D01*
G01X580898D01*
G02X581462Y1008760I0J-1271D01*
G03X582928Y1009671I450J911D01*
G01Y1040128D01*
X521633D01*
G02Y1055372I-7283J7622D01*
G01X575207D01*
Y1156891D01*
X591909Y1173593D01*
X611991D01*
X624998Y1160586D01*
X625135Y1160552D01*
G02X631725Y1156084I-2785J-11202D01*
G03X633375I825J593D01*
G02X652125I9375J-6734D01*
G03X653775I825J593D01*
G02X673292Y1143837I9376J-6733D01*
G03X673722Y1143087I446J-242D01*
G02X673868Y1143081I-401J-11536D01*
G01X674092Y1143071D01*
X683194Y1152173D01*
Y1160228D01*
X650894Y1192528D01*
X516507D01*
X456271Y1132292D01*
X456281Y1132068D01*
G02X435375Y1124816I-11531J-518D01*
G03X433725I-825J-593D01*
G02X414975I-9375J6734D01*
G03X413325I-825J-593D01*
G02X394575I-9375J6734D01*
G03X392925I-825J-593D01*
G02X384663Y1120061I-9375J6734D01*
G03X384043Y1118331I98J-1011D01*
G01X421602Y1080772D01*
X456267D01*
G02Y1065528I7283J-7622D01*
G01X421602D01*
X405982Y1049908D01*
X352323D01*
X328928Y1073303D01*
Y1171593D01*
X320693Y1179828D01*
X222271D01*
G03X221360Y1178362I0J-1016D01*
G02X221492Y1177798I-1139J-564D01*
G01Y1171702D01*
G02X220220Y1170430I-1272J0D01*
G01X204980D01*
G02X203708Y1171702I0J1272D01*
G01Y1177798D01*
G02X204980Y1179070I1272J0D01*
G01X208085D01*
G03X208616Y1180952I0J1016D01*
G02X206468Y1182924I3985J6497D01*
G01X206315Y1183130D01*
X204980D01*
G02X203708Y1184402I0J1272D01*
G01Y1190498D01*
G02X204980Y1191770I1272J0D01*
G01X206315D01*
X206468Y1191976D01*
G02X207433Y1193053I6133J-4525D01*
G03Y1194547I-689J747D01*
G02X206468Y1195624I5168J5602D01*
G01X206315Y1195830D01*
X204980D01*
G02X203708Y1197102I0J1272D01*
G01Y1203198D01*
G02X204980Y1204470I1272J0D01*
G01X206315D01*
X206468Y1204676D01*
G02X208616Y1206648I6133J-4525D01*
G03X208085Y1208530I-531J866D01*
G01X204980D01*
G02X203708Y1209802I0J1272D01*
G01Y1215898D01*
G02X204980Y1217170I1272J0D01*
G01X220220D01*
G02X221492Y1215898I0J-1272D01*
G01Y1209802D01*
G02X221360Y1209238I-1271J0D01*
G03X222271Y1207772I911J-450D01*
G01X332268D01*
X356872Y1183168D01*
Y1182372D01*
X388129D01*
X401372Y1169129D01*
Y1158019D01*
G02X403125Y1156084I-7623J-8668D01*
G03X404775I825J593D01*
G02X423525I9375J-6734D01*
G03X425175I825J593D01*
G02X444692Y1143837I9376J-6733D01*
G03X445122Y1143087I446J-242D01*
G02X445268Y1143081I-401J-11536D01*
G01X445492Y1143071D01*
X510193Y1207772D01*
X657208D01*
X698438Y1166542D01*
Y1145859D01*
X684871Y1132292D01*
X684881Y1132068D01*
G02Y1131032I-11531J-518D01*
G01X684871Y1130808D01*
X811643Y1004036D01*
Y362714D01*
X731522Y282593D01*
Y144530D01*
X748492Y127560D01*
Y125887D01*
X752280Y122099D01*
X752551Y122158D01*
G02X770192Y107950I3099J-14208D01*
G01Y76527D01*
X736273Y42608D01*
G37*
G54D18*
X133350Y260350D03*
X234950Y234950D03*
Y1104950D03*
X444500Y107950D03*
Y260350D03*
X419100D03*
X393700D03*
X673100Y107950D03*
X622300D03*
X673100Y260350D03*
X647700D03*
X622300D03*
X774950Y234950D03*
Y1104950D03*
%LPD*%
G75*
G36*
G01X427621Y489201D02*
G02X425887Y489919I-718J718D01*
G01Y769438D01*
X585472Y929023D01*
Y936479D01*
G02X586938Y937390I1016J0D01*
G03X587502Y937258I564J1139D01*
G01X593598D01*
G03X594870Y938530I0J1272D01*
G01Y939865D01*
X595076Y940018D01*
G03X597048Y942166I-4525J6133D01*
G02X598930Y941635I866J-531D01*
G01Y938530D01*
G03X600202Y937258I1272J0D01*
G01X606298D01*
G03X606862Y937390I0J1271D01*
G02X608328Y936479I450J-911D01*
G01Y930257D01*
X430528Y752457D01*
Y492107D01*
X427621Y489201D01*
G37*
G54D10*
X107950Y133350D03*
X133350D03*
Y285750D03*
Y260350D03*
Y361950D03*
Y336550D03*
Y311150D03*
Y438150D03*
Y387350D03*
Y514350D03*
Y488950D03*
Y463550D03*
Y565150D03*
Y539750D03*
Y666750D03*
Y641350D03*
Y615950D03*
Y742950D03*
Y717550D03*
Y692150D03*
Y819150D03*
Y793750D03*
Y895350D03*
Y869950D03*
Y844550D03*
Y920750D03*
Y971550D03*
Y1047750D03*
Y1022350D03*
Y996950D03*
Y1098550D03*
Y1073150D03*
X158750Y133350D03*
X184150D03*
X209550D03*
X234950Y234950D03*
Y1104950D03*
X323850Y349250D03*
Y393700D03*
X373350Y1149350D03*
X444500Y107950D03*
X419100D03*
X393700D03*
X444500Y260350D03*
X419100D03*
X393700D03*
X444750Y1131550D03*
X424350D03*
X403950D03*
X383550D03*
X434550Y1149350D03*
X414150D03*
X393750D03*
X533400Y355600D03*
Y482600D03*
Y615950D03*
Y749300D03*
X558800Y355600D03*
Y482600D03*
Y615950D03*
Y749300D03*
X601950Y1149350D03*
X673100Y107950D03*
X647700D03*
X622300D03*
X673100Y260350D03*
X647700D03*
X622300D03*
X673350Y1131550D03*
X652950D03*
X632550D03*
X612150D03*
X663150Y1149350D03*
X642750D03*
X622350D03*
X730250Y107950D03*
X755650D03*
X774950Y234950D03*
X787400Y381000D03*
Y406400D03*
X774950Y1104950D03*
G54D11*
X212600Y1174750D03*
Y1187450D03*
Y1200150D03*
X158750D03*
Y1187450D03*
Y1174750D03*
X212600Y1212850D03*
X158750D03*
G54D12*
X255349Y346710D03*
X290751D03*
X255349Y321310D03*
X290751D03*
X255349Y422910D03*
X290751D03*
X255349Y397510D03*
X290751D03*
X255349Y372110D03*
X290751D03*
X255349Y499110D03*
X290751D03*
X255349Y473710D03*
X290751D03*
X255349Y448310D03*
X290751D03*
X255349Y590550D03*
X290751D03*
X255349Y549910D03*
X290751D03*
X255349Y524510D03*
X290751D03*
X255349Y666750D03*
X290751D03*
X255349Y641350D03*
X290751D03*
X255349Y615950D03*
X290751D03*
X255349Y742950D03*
X290751D03*
X255349Y717550D03*
X290751D03*
X255349Y692150D03*
X290751D03*
X255349Y819150D03*
X290751D03*
X255349Y793750D03*
X290751D03*
X255349Y768350D03*
X290751D03*
X255349Y895350D03*
X290751D03*
X255349Y869950D03*
X290751D03*
X255349Y844550D03*
X290751D03*
X255349Y971550D03*
X290751D03*
X255349Y946150D03*
X290751D03*
X255349Y920750D03*
X290751D03*
X255349Y996950D03*
X290751D03*
X712549Y438150D03*
X747951D03*
X712549Y412750D03*
X747951D03*
X712549Y514350D03*
X747951D03*
X712549Y488950D03*
X747951D03*
X712549Y463550D03*
X747951D03*
X712549Y590550D03*
X747951D03*
X712549Y565150D03*
X747951D03*
X712549Y539750D03*
X747951D03*
X712549Y666750D03*
X747951D03*
X712549Y641350D03*
X747951D03*
X712549Y742950D03*
X747951D03*
X712549Y717550D03*
X747951D03*
X712549Y692150D03*
X747951D03*
X712549Y819150D03*
X747951D03*
X712549Y793750D03*
X747951D03*
X712549Y768350D03*
X747951D03*
X712549Y895350D03*
X747951D03*
X712549Y869950D03*
X747951D03*
X712549Y844550D03*
X747951D03*
X712549Y971550D03*
X747951D03*
X712549Y946150D03*
X747951D03*
X712549Y920750D03*
X747951D03*
X712549Y996950D03*
X747951D03*
G54D13*
X361950Y1073150D03*
X514350Y1047750D03*
X463550Y1073150D03*
X615950Y1047750D03*
G54D14*
X577850Y946150D03*
X590550D03*
X603250D03*
Y1000000D03*
X590550D03*
X577850D03*
X615950Y946150D03*
Y1000000D03*
G54D15*
G01X133350Y248299D02*
Y260350D01*
G01X121299D02*
X133350D01*
G01X121299Y539750D02*
X133350D01*
G01Y717550D02*
X145401D01*
G01X133350Y895350D02*
X145401D01*
G01X133350Y1073150D02*
X145401D01*
G01X209550Y133350D02*
Y145401D01*
G01Y133350D02*
X221601D01*
G01X149350Y1187450D02*
X158750D01*
G01D02*
X168150D01*
G01X414150Y1149350D02*
Y1161401D01*
G01X434550Y1149350D02*
Y1161401D01*
G01Y1149350D02*
X446601D01*
G01X558800Y343549D02*
Y355600D01*
G01D02*
Y367651D01*
G01Y470549D02*
Y482600D01*
G01D02*
Y494651D01*
G01Y603899D02*
Y615950D01*
G01D02*
Y628001D01*
G01Y737249D02*
Y749300D01*
G01D02*
Y761351D01*
G01X603250Y936750D02*
Y946150D01*
G01D02*
Y955550D01*
G01X622300Y95899D02*
Y107950D01*
G01D02*
Y120001D01*
G01X673100Y95899D02*
Y107950D01*
G01D02*
Y120001D01*
G01X642750Y1149350D02*
Y1161401D01*
G01X663150Y1149350D02*
Y1161401D01*
G01Y1149350D02*
X675201D01*
G01X730250Y95899D02*
Y107950D01*
G01D02*
Y120001D01*
G01X742950Y529199D02*
Y539750D01*
G01D02*
Y550301D01*
G01X787400Y406400D02*
Y418451D01*
G01X775349Y406400D02*
X787400D01*
G54D16*
G01X393700Y107950D02*
Y84408D01*
X420958Y57150D01*
X730250D01*
X755650Y82550D01*
Y107950D01*
G01X533400Y355600D02*
Y271192D01*
X393700Y131492D01*
Y107950D01*
G01X533400Y482600D02*
Y355600D01*
G01Y482600D02*
Y615950D01*
G01D02*
Y749300D01*
G54D17*
G01X133350Y133350D02*
Y112594D01*
X123190Y102434D01*
X88065D01*
X63500Y126999D01*
Y1155700D01*
X120650Y1212850D01*
X158750D01*
G01X133350Y133350D02*
Y171451D01*
X177800Y215901D01*
Y269240D01*
X229870Y321310D01*
X260350D01*
G01X107950Y133350D02*
X82550Y158750D01*
Y1103122D01*
X154178Y1174750D01*
X158750D01*
G01X107950Y133350D02*
Y184150D01*
X158750Y234950D01*
Y279400D01*
X226060Y346710D01*
X260350D01*
G01X133350Y285750D02*
X222250Y374650D01*
Y412431D01*
X232729Y422910D01*
X260350D01*
G01X133350Y336550D02*
X190500Y393700D01*
Y431481D01*
X232729Y473710D01*
X260350D01*
G01X133350Y311150D02*
X209550Y387350D01*
Y425131D01*
X232729Y448310D01*
X260350D01*
G01X133350Y361950D02*
X171450Y400050D01*
Y438150D01*
X228600Y495300D01*
Y552045D01*
X241586Y565031D01*
X304514D01*
X317181Y552364D01*
Y524510D01*
X285750D01*
G01X133350Y438150D02*
X162671Y467471D01*
Y594471D01*
X184150Y615950D01*
X260350D01*
G01X133350Y387350D02*
X104029Y416671D01*
Y1092734D01*
X160645Y1149350D01*
X184150D01*
G01X133350Y641350D02*
X116729Y624729D01*
Y605277D01*
X149971Y572035D01*
Y480171D01*
X133350Y463550D01*
G01Y641350D02*
X116729Y657971D01*
Y802529D01*
X133350Y819150D01*
G01X260350Y641350D02*
X158750D01*
X133350Y615950D01*
G01Y819150D02*
X116729Y835771D01*
Y980329D01*
X133350Y996950D01*
G01X260350Y692150D02*
X234950D01*
X133350Y793750D01*
G01Y971550D02*
X197050D01*
X247850Y920750D01*
X260350D01*
G01X133350Y1098550D02*
X116729Y1081929D01*
Y1013571D01*
X133350Y996950D01*
G01X323850Y349250D02*
Y202111D01*
X236039Y114300D01*
X203200D01*
X184150Y133350D01*
G01X158750D02*
X190500Y101600D01*
X241300D01*
X349250Y209550D01*
Y372110D01*
G01X184150Y1149350D02*
Y1047750D01*
X209550Y1022350D01*
X317499D01*
X368299Y971550D01*
X590550D01*
G01X212600Y1187450D02*
X323850D01*
X336550Y1174750D01*
Y1076460D01*
X355480Y1057530D01*
X402825D01*
X418445Y1073150D01*
G01X349250Y1174750D02*
Y1180011D01*
X329111Y1200150D01*
X212600D01*
G01X184150Y1149350D02*
Y1188720D01*
X172720Y1200150D01*
X158750D01*
G01X285750Y397510D02*
X320040D01*
G01X349250Y372110D02*
X285750D01*
G01X320040Y397510D02*
X323850Y393700D01*
G01X577850Y946150D02*
Y932180D01*
X418265Y772595D01*
Y488114D01*
X327661Y397510D01*
X320040D01*
G01X349250Y372110D02*
Y400050D01*
X438150Y488950D01*
Y749300D01*
X615950Y927100D01*
Y946150D01*
G01X418445Y1073150D02*
X366929Y1124666D01*
Y1142929D01*
X373350Y1149350D01*
G01X361950Y1073150D02*
X349250Y1085850D01*
Y1174750D01*
G01D02*
X384972D01*
X393750Y1165972D01*
Y1149350D01*
G01X463550Y1073150D02*
X418445D01*
G01X444750Y1131550D02*
X513350Y1200150D01*
X654051D01*
X690816Y1163385D01*
Y1149016D01*
X673350Y1131550D01*
G01X514350Y1047750D02*
X590550D01*
G01Y971550D02*
X658265D01*
X698786Y1012071D01*
X761714D01*
X783271Y990514D01*
Y516771D01*
X755450Y488950D01*
X742950D01*
G01X590550Y971550D02*
Y946150D01*
G01X603250Y1000000D02*
Y1035050D01*
X615950Y1047750D01*
G01X590550D02*
Y1000000D01*
G01X622350Y1149350D02*
Y1152455D01*
X608834Y1165971D01*
X595066D01*
X582829Y1153734D01*
Y1055471D01*
X590550Y1047750D01*
G01X615950D02*
Y1104244D01*
X595529Y1124665D01*
Y1142929D01*
X601950Y1149350D01*
G01X647700Y107950D02*
Y124572D01*
X698500Y175372D01*
Y292100D01*
X787400Y381000D01*
G01X755650Y107950D02*
X740870Y122730D01*
Y124403D01*
X723900Y141373D01*
Y285750D01*
X804021Y365871D01*
Y1000879D01*
X673350Y1131550D01*
M02*
