G04 ================== begin FILE IDENTIFICATION RECORD ==================*
G04 Layout Name:  M:/Paul MOULINS/STAGE/Cadence/PCB_Nw_Software/PCB/CarteV4bis.brd*
G04 Film Name:    BOTTOM*
G04 File Format:  Gerber RS274X*
G04 File Origin:  Cadence Allegro 17.2-S014*
G04 Origin Date:  Mon Jul 10 11:24:23 2017*
G04 *
G04 Layer:  ETCH/BOTTOM*
G04 Layer:  PIN/BOTTOM*
G04 Layer:  VIA CLASS/BOTTOM*
G04 *
G04 Offset:    (0.0000 0.0000)*
G04 Mirror:    No*
G04 Mode:      Positive*
G04 Rotation:  0*
G04 FullContactRelief:  No*
G04 UndefLineWidth:     0.0000*
G04 ================== end FILE IDENTIFICATION RECORD ====================*
%FSLAX34Y34*MOMM*%
%IR0*IPPOS*OFA0.00000B0.00000*MIA0B0*SFA1.00000B1.00000*%
%ADD10C,1.8001*%
%ADD11C,.6*%
%ADD12C,1.016*%
G75*
%LPD*%
G75*
G36*
G01X1320800Y419100D02*
Y895350D01*
X1714500D01*
Y419100D01*
X1320800D01*
G37*
%LPC*%
G75*
G36*
G01X1464803Y500024D02*
X1430997D01*
X1423142Y507879D01*
X1422918Y507869D01*
G02X1413731Y511778I-519J11531D01*
G01X1402621D01*
X1370328Y544071D01*
Y706707D01*
X1410879Y747258D01*
X1410869Y747482D01*
G02X1415666Y757375I11531J518D01*
G03Y759025I-593J825D01*
G02Y777775I6734J9375D01*
G03Y779425I-593J825D01*
G02Y798175I6734J9375D01*
G03Y799825I-593J825D01*
G02X1427269Y819666I6734J9375D01*
G03X1428709Y820491I429J921D01*
G02X1448869Y827022I11491J-1091D01*
G01X1459979D01*
X1474472Y812529D01*
Y638304D01*
G03X1476206Y637586I1016J0D01*
G01X1557797Y719176D01*
X1591603D01*
X1599458Y711321D01*
X1599682Y711331D01*
G02X1606934Y690425I518J-11531D01*
G03Y688775I593J-825D01*
G02Y670025I-6734J-9375D01*
G03Y668375I593J-825D01*
G02Y649625I-6734J-9375D01*
G03Y647975I593J-825D01*
G02X1595331Y628134I-6734J-9375D01*
G03X1593891Y627309I-429J-921D01*
G02X1581882Y616869I-11491J1091D01*
G01X1581658Y616879D01*
X1464803Y500024D01*
G37*
%LPD*%
G75*
G36*
G01X1459228Y806215D02*
Y620607D01*
X1440942Y602321D01*
X1440718Y602331D01*
G03X1428709Y591891I-518J-11531D01*
G02X1427269Y591066I-1011J96D01*
G03X1415666Y571225I-4869J-10466D01*
G02Y569575I-593J-825D01*
G03Y550825I6734J-9375D01*
G02Y549175I-593J-825D01*
G03Y530425I6734J-9375D01*
G02Y528775I-593J-825D01*
G03X1413731Y527022I6733J-9376D01*
G01X1408935D01*
X1385572Y550385D01*
Y700393D01*
X1421658Y736479D01*
X1421882Y736469D01*
G03X1433891Y746909I518J11531D01*
G02X1435331Y747734I1011J-96D01*
G03X1446934Y767575I4869J10466D01*
G02Y769225I593J825D01*
G03Y787975I-6734J9375D01*
G02Y789625I593J825D01*
G03Y808375I-6734J9375D01*
G02Y810025I593J825D01*
G03X1448869Y811778I-6733J9376D01*
G01X1453665D01*
X1459228Y806215D01*
G37*
G36*
G01X1575666Y637775D02*
G03X1570869Y627882I6734J-9375D01*
G01X1570879Y627658D01*
X1458489Y515268D01*
X1437311D01*
X1433921Y518658D01*
X1433931Y518882D01*
G03X1433937Y519028I-11530J547D01*
G02X1434687Y519458I508J-16D01*
G03X1446934Y538975I5514J10141D01*
G02Y540625I593J825D01*
G03Y559375I-6734J9375D01*
G02Y561025I593J825D01*
G03Y579775I-6734J9375D01*
G02Y581425I593J825D01*
G03X1451731Y591318I-6734J9375D01*
G01X1451721Y591542D01*
X1564111Y703932D01*
X1585289D01*
X1588679Y700542D01*
X1588669Y700318D01*
G03X1588663Y700172I11530J-547D01*
G02X1587913Y699742I-508J16D01*
G03X1575666Y680225I-5514J-10141D01*
G02Y678575I-593J-825D01*
G03Y659825I6734J-9375D01*
G02Y658175I-593J-825D01*
G03Y639425I6734J-9375D01*
G02Y637775I-593J-825D01*
G37*
G54D10*
X1422400Y539800D03*
Y519400D03*
Y560200D03*
Y580600D03*
D03*
Y748000D03*
Y788800D03*
Y768400D03*
Y809200D03*
X1440200Y529600D03*
Y570400D03*
Y550000D03*
Y590800D03*
Y778600D03*
Y758200D03*
Y819400D03*
Y799000D03*
X1582400Y628400D03*
Y648800D03*
X1600200Y638600D03*
X1582400Y669200D03*
X1600200Y659000D03*
Y679400D03*
X1582400Y689600D03*
X1600200Y699800D03*
G54D11*
G01X1410349Y560200D02*
X1422400D01*
G01X1410349Y788800D02*
X1422400D01*
G01X1410349Y809200D02*
X1422400D01*
G01D02*
Y821251D01*
G01X1570349Y669200D02*
X1582400D01*
G01X1570349Y689600D02*
X1582400D01*
G54D12*
G01X1422400Y748000D02*
X1377950Y703550D01*
Y547228D01*
X1405778Y519400D01*
X1422400D01*
G01X1582400Y628400D02*
X1461646Y507646D01*
X1434154D01*
X1422400Y519400D01*
G01X1466850Y617450D02*
X1440200Y590800D01*
G01X1466850Y617450D02*
Y809372D01*
X1456822Y819400D01*
X1440200D01*
G01X1600200Y699800D02*
X1588446Y711554D01*
X1560954D01*
X1466850Y617450D01*
M02*
