M48
METRIC
T01C1.
;LEADER: 12 
;HEADER: 
;CODE  : EIA 
;FILE  : CarteV4bis-1-2.drl for  ... layers TOP and BOTTOM
;DESIGN: CarteV4bis.brd
;T01 Holesize 1. = 1.000000 Tolerance = +0.000000/-0.000000 PLATED MM Quantity = 25
%
G90
T01
X14224000Y05194000
X15824000Y06896000
X15824000Y06692000
X15824000Y06488000
X15824000Y06284000
X14224000Y05398000
X14224000Y05602000
X14224000Y05806000
X14402000Y05296000
X14402000Y05500000
X14402000Y05704000
X14402000Y05908000
X14224000Y07480000
X14224000Y07684000
X14224000Y07888000
X14224000Y08092000
X14402000Y07582000
X14402000Y07786000
X14402000Y07990000
X14402000Y08194000
X14224000Y05806000
X16002000Y06998000
X16002000Y06794000
X16002000Y06590000
X16002000Y06386000
M30
