M48
METRIC
T01C.8001
T02C1.
;LEADER: 12 
;HEADER: 
;CODE  : EIA 
;FILE  : CarteV2-1-2.drl for  ... layers TOP and BOTTOM
;DESIGN: CarteV2.brd
;T01 Holesize 1. = 0.800100 Tolerance = +0.000000/-0.000000 PLATED MM Quantity = 4
;T02 Holesize 2. = 1.000000 Tolerance = +0.000000/-0.000000 PLATED MM Quantity = 179
%
G90
T01
X06921500Y09969500
X07937500Y09969500
X05397500Y10223500
X06413500Y10223500
T02
X05651500Y00571500
X05905500Y00571500
X06159500Y00571500
X07937500Y00571500
X08191500Y00571500
X08445500Y00571500
X03873500Y00825500
X03619500Y00825500
X03365500Y00825500
X03111500Y00825500
X02857500Y00825500
X09334500Y00571500
X09080500Y00571500
X04127500Y01841500
X04127500Y10541500
X07797500Y10985500
X08001500Y10985500
X08205500Y10985500
X08409500Y10985500
X07899500Y10807500
X08103500Y10807500
X08307500Y10807500
X08511500Y10807500
X05511500Y10985500
X05715500Y10985500
X05919500Y10985500
X06123500Y10985500
X05613500Y10807500
X05817500Y10807500
X06021500Y10807500
X06225500Y10807500
X05651500Y02095500
X05905500Y02095500
X06159500Y02095500
X07937500Y02095500
X08191500Y02095500
X08445500Y02095500
X09207500Y03619500
X08953500Y03619500
X09207500Y03873500
X08953500Y03873500
X09207500Y04127500
X08953500Y04127500
X09207500Y04381500
X08953500Y04381500
X09207500Y04635500
X08953500Y04635500
X09207500Y04889500
X08953500Y04889500
X09207500Y05143500
X08953500Y05143500
X09207500Y05397500
X08953500Y05397500
X09207500Y05905500
X08953500Y05905500
X09207500Y06159500
X08953500Y06159500
X09207500Y06413500
X08953500Y06413500
X09207500Y06667500
X08953500Y06667500
X09207500Y06921500
X08953500Y06921500
X09207500Y07175500
X08953500Y07175500
X09207500Y07429500
X08953500Y07429500
X09207500Y07683500
X08953500Y07683500
X09207500Y07937500
X08953500Y07937500
X09207500Y08191500
X08953500Y08191500
X09207500Y08445500
X08953500Y08445500
X09207500Y08699500
X08953500Y08699500
X09207500Y08953500
X08953500Y08953500
X09207500Y09207500
X08953500Y09207500
X09207500Y09461500
X08953500Y09461500
X04635500Y02705100
X04381500Y02705100
X04635500Y02959100
X04381500Y02959100
X04635500Y03213100
X04381500Y03213100
X04635500Y03467100
X04381500Y03467100
X04635500Y03721100
X04381500Y03721100
X04635500Y03975100
X04381500Y03975100
X04635500Y04229100
X04381500Y04229100
X04635500Y04483100
X04381500Y04483100
X04635500Y04737100
X04381500Y04737100
X04635500Y04991100
X04381500Y04991100
X04635500Y05397500
X04381500Y05397500
X04635500Y05651500
X04381500Y05651500
X04635500Y05905500
X04381500Y05905500
X04635500Y06159500
X04381500Y06159500
X04635500Y06413500
X04381500Y06413500
X04635500Y06667500
X04381500Y06667500
X04635500Y06921500
X04381500Y06921500
X04635500Y07175500
X04381500Y07175500
X04635500Y07429500
X04381500Y07429500
X04635500Y07683500
X04381500Y07683500
X04635500Y07937500
X04381500Y07937500
X04635500Y08191500
X04381500Y08191500
X04635500Y08445500
X04381500Y08445500
X04635500Y08699500
X04381500Y08699500
X04635500Y08953500
X04381500Y08953500
X04635500Y09207500
X04381500Y09207500
X04635500Y09461500
X04381500Y09461500
X03111500Y02095500
X03111500Y02349500
X03111500Y02603500
X03111500Y02857500
X03111500Y03111500
X03111500Y03365500
X03111500Y09207500
X03111500Y09461500
X03111500Y09715500
X03111500Y09969500
X03111500Y10223500
X03111500Y10477500
X03111500Y07429500
X03111500Y07683500
X03111500Y07937500
X03111500Y08191500
X03111500Y08445500
X03111500Y08699500
X03111500Y05651500
X03111500Y05905500
X03111500Y06159500
X03111500Y06413500
X03111500Y06667500
X03111500Y06921500
X03111500Y03873500
X03111500Y04127500
X03111500Y04381500
X03111500Y04635500
X03111500Y04889500
X03111500Y05143500
X07683500Y05651500
X07937500Y05651500
X07683500Y06667500
X07937500Y06667500
X07683500Y04635500
X07937500Y04635500
X07683500Y03619500
X07937500Y03619500
X05016500Y03429000
X05016500Y02984500
X09527500Y01841500
X09527500Y10541500
M30
