M48
METRIC
T01C.8001
T02C1.
;LEADER: 12 
;HEADER: 
;CODE  : EIA 
;FILE  : CarteV5-1-2.drl for  ... layers TOP and BOTTOM
;DESIGN: CarteV5.brd
;T01 Holesize 1. = 0.800100 Tolerance = +0.000000/-0.000000 PLATED MM Quantity = 4
;T02 Holesize 2. = 1.000000 Tolerance = +0.000000/-0.000000 PLATED MM Quantity = 181
%
G90
T01
X05143500Y10477500
X06159500Y10477500
X03619500Y10731500
X04635500Y10731500
T02
X03937000Y01079500
X04191000Y01079500
X04445000Y01079500
X06223000Y01079500
X06477000Y01079500
X06731000Y01079500
X02095500Y01333500
X01841500Y01333500
X01587500Y01333500
X01333500Y01333500
X01079500Y01333500
X07556500Y01079500
X07302500Y01079500
X02349500Y02349500
X02349500Y11049500
X06019500Y11493500
X06223500Y11493500
X06427500Y11493500
X06631500Y11493500
X06121500Y11315500
X06325500Y11315500
X06529500Y11315500
X06733500Y11315500
X03733500Y11493500
X03937500Y11493500
X04141500Y11493500
X04345500Y11493500
X03835500Y11315500
X04039500Y11315500
X04243500Y11315500
X04447500Y11315500
X03937000Y02603500
X04191000Y02603500
X04445000Y02603500
X06223000Y02603500
X06477000Y02603500
X06731000Y02603500
X07429500Y04127500
X07175500Y04127500
X07429500Y04381500
X07175500Y04381500
X07429500Y04635500
X07175500Y04635500
X07429500Y04889500
X07175500Y04889500
X07429500Y05143500
X07175500Y05143500
X07429500Y05397500
X07175500Y05397500
X07429500Y05651500
X07175500Y05651500
X07429500Y05905500
X07175500Y05905500
X07429500Y06413500
X07175500Y06413500
X07429500Y06667500
X07175500Y06667500
X07429500Y06921500
X07175500Y06921500
X07429500Y07175500
X07175500Y07175500
X07429500Y07429500
X07175500Y07429500
X07429500Y07683500
X07175500Y07683500
X07429500Y07937500
X07175500Y07937500
X07429500Y08191500
X07175500Y08191500
X07429500Y08445500
X07175500Y08445500
X07429500Y08699500
X07175500Y08699500
X07429500Y08953500
X07175500Y08953500
X07429500Y09207500
X07175500Y09207500
X07429500Y09461500
X07175500Y09461500
X07429500Y09715500
X07175500Y09715500
X07429500Y09969500
X07175500Y09969500
X02857500Y03213100
X02603500Y03213100
X02857500Y03467100
X02603500Y03467100
X02857500Y03721100
X02603500Y03721100
X02857500Y03975100
X02603500Y03975100
X02857500Y04229100
X02603500Y04229100
X02857500Y04483100
X02603500Y04483100
X02857500Y04737100
X02603500Y04737100
X02857500Y04991100
X02603500Y04991100
X02857500Y05245100
X02603500Y05245100
X02857500Y05499100
X02603500Y05499100
X02857500Y05905500
X02603500Y05905500
X02857500Y06159500
X02603500Y06159500
X02857500Y06413500
X02603500Y06413500
X02857500Y06667500
X02603500Y06667500
X02857500Y06921500
X02603500Y06921500
X02857500Y07175500
X02603500Y07175500
X02857500Y07429500
X02603500Y07429500
X02857500Y07683500
X02603500Y07683500
X02857500Y07937500
X02603500Y07937500
X02857500Y08191500
X02603500Y08191500
X02857500Y08445500
X02603500Y08445500
X02857500Y08699500
X02603500Y08699500
X02857500Y08953500
X02603500Y08953500
X02857500Y09207500
X02603500Y09207500
X02857500Y09461500
X02603500Y09461500
X02857500Y09715500
X02603500Y09715500
X02857500Y09969500
X02603500Y09969500
X01333500Y02603500
X01333500Y02857500
X01333500Y03111500
X01333500Y03365500
X01333500Y03619500
X01333500Y03873500
X01333500Y09715500
X01333500Y09969500
X01333500Y10223500
X01333500Y10477500
X01333500Y10731500
X01333500Y10985500
X01333500Y07937500
X01333500Y08191500
X01333500Y08445500
X01333500Y08699500
X01333500Y08953500
X01333500Y09207500
X01333500Y06159500
X01333500Y06413500
X01333500Y06667500
X01333500Y06921500
X01333500Y07175500
X01333500Y07429500
X01333500Y04381500
X01333500Y04635500
X01333500Y04889500
X01333500Y05143500
X01333500Y05397500
X01333500Y05651500
X05334000Y06159500
X05588000Y06159500
X05334000Y07493000
X05588000Y07493000
X05334000Y04826000
X05588000Y04826000
X05334000Y03556000
X05588000Y03556000
X03238500Y03937000
X03238500Y03492500
X07749500Y02349500
X07749500Y11049500
X07874000Y04064000
X07874000Y03810000
M30
