G04 ================== begin FILE IDENTIFICATION RECORD ==================*
G04 Layout Name:  M:/Paul MOULINS/STAGE/Cadence/PCB_Nw_Software/PCB/CarteV4bis.brd*
G04 Film Name:    TOP*
G04 File Format:  Gerber RS274X*
G04 File Origin:  Cadence Allegro 17.2-S014*
G04 Origin Date:  Mon Jul 10 11:24:22 2017*
G04 *
G04 Layer:  ETCH/TOP*
G04 Layer:  PIN/TOP*
G04 Layer:  VIA CLASS/TOP*
G04 *
G04 Offset:    (0.0000 0.0000)*
G04 Mirror:    No*
G04 Mode:      Positive*
G04 Rotation:  0*
G04 FullContactRelief:  No*
G04 UndefLineWidth:     0.0000*
G04 ================== end FILE IDENTIFICATION RECORD ====================*
%FSLAX34Y34*MOMM*%
%IR0*IPPOS*OFA0.00000B0.00000*MIA0B0*SFA1.00000B1.00000*%
%ADD10C,1.8001*%
%ADD11C,1.016*%
G75*
%LPD*%
G75*
G54D10*
X1422400Y539800D03*
Y519400D03*
Y560200D03*
Y580600D03*
D03*
Y748000D03*
Y788800D03*
Y768400D03*
Y809200D03*
X1440200Y529600D03*
Y570400D03*
Y550000D03*
Y590800D03*
Y778600D03*
Y758200D03*
Y819400D03*
Y799000D03*
X1582400Y628400D03*
Y648800D03*
X1600200Y638600D03*
X1582400Y669200D03*
X1600200Y659000D03*
Y679400D03*
X1582400Y689600D03*
X1600200Y699800D03*
G54D11*
G01X1422400Y768400D02*
X1405778D01*
X1377950Y740572D01*
Y581143D01*
X1419293Y539800D01*
X1419294D01*
G01X1582400Y648800D02*
X1565778D01*
X1543050Y626072D01*
Y571501D01*
X1470829Y499280D01*
X1415939D01*
X1405779Y509440D01*
Y526285D01*
X1419294Y539800D01*
G01D02*
X1422400D01*
G01X1504950Y717550D02*
X1422400Y635000D01*
Y580600D01*
G01Y788800D02*
Y809200D01*
G01D02*
Y836910D01*
X1432560Y847070D01*
X1457979D01*
X1504950Y800099D01*
Y717550D01*
G01X1582400Y669200D02*
X1553300D01*
X1504950Y717550D01*
M02*
