G04 ================== begin FILE IDENTIFICATION RECORD ==================*
G04 Layout Name:  M:/Paul MOULINS/STAGE/Cadence/PCB_Nw_Software/PCB/CarteV5.brd*
G04 Film Name:    TOP*
G04 File Format:  Gerber RS274X*
G04 File Origin:  Cadence Allegro 17.2-S014*
G04 Origin Date:  Tue Jul 11 09:24:02 2017*
G04 *
G04 Layer:  ETCH/TOP*
G04 Layer:  PIN/TOP*
G04 Layer:  VIA CLASS/TOP*
G04 *
G04 Offset:    (0.0000 0.0000)*
G04 Mirror:    No*
G04 Mode:      Positive*
G04 Rotation:  0*
G04 FullContactRelief:  No*
G04 UndefLineWidth:     0.0000*
G04 ================== end FILE IDENTIFICATION RECORD ====================*
%FSLAX34Y34*MOMM*%
%IR0*IPPOS*OFA0.00000B0.00000*MIA0B0*SFA1.00000B1.00000*%
%ADD11O,3.X1.5001*%
%ADD10C,1.8001*%
%ADD12C,1.5999*%
%ADD13C,1.016*%
G75*
%LPD*%
G75*
G54D10*
X107950Y133350D03*
X133350D03*
Y285750D03*
Y260350D03*
Y361950D03*
Y336550D03*
Y311150D03*
Y438150D03*
Y387350D03*
Y514350D03*
Y488950D03*
Y463550D03*
Y565150D03*
Y539750D03*
Y666750D03*
Y641350D03*
Y615950D03*
Y742950D03*
Y717550D03*
Y692150D03*
Y819150D03*
Y793750D03*
Y895350D03*
Y869950D03*
Y844550D03*
Y920750D03*
Y971550D03*
Y1047750D03*
Y1022350D03*
Y996950D03*
Y1098550D03*
Y1073150D03*
X158750Y133350D03*
X184150D03*
X209550D03*
X234950Y234950D03*
Y1104950D03*
X323850Y349250D03*
Y393700D03*
X373350Y1149350D03*
X444500Y107950D03*
X419100D03*
X393700D03*
X444500Y260350D03*
X419100D03*
X393700D03*
X444750Y1131550D03*
X424350D03*
X403950D03*
X383550D03*
X434550Y1149350D03*
X414150D03*
X393750D03*
X533400Y355600D03*
Y482600D03*
Y615950D03*
Y749300D03*
X558800Y355600D03*
Y482600D03*
Y615950D03*
Y749300D03*
X601950Y1149350D03*
X673100Y107950D03*
X647700D03*
X622300D03*
X673100Y260350D03*
X647700D03*
X622300D03*
X673350Y1131550D03*
X652950D03*
X632550D03*
X612150D03*
X663150Y1149350D03*
X642750D03*
X622350D03*
X730250Y107950D03*
X755650D03*
X774950Y234950D03*
X787400Y381000D03*
Y406400D03*
X774950Y1104950D03*
G54D11*
X255349Y346710D03*
X290751D03*
X255349Y321310D03*
X290751D03*
X255349Y422910D03*
X290751D03*
X255349Y397510D03*
X290751D03*
X255349Y372110D03*
X290751D03*
X255349Y499110D03*
X290751D03*
X255349Y473710D03*
X290751D03*
X255349Y448310D03*
X290751D03*
X255349Y590550D03*
X290751D03*
X255349Y549910D03*
X290751D03*
X255349Y524510D03*
X290751D03*
X255349Y666750D03*
X290751D03*
X255349Y641350D03*
X290751D03*
X255349Y615950D03*
X290751D03*
X255349Y742950D03*
X290751D03*
X255349Y717550D03*
X290751D03*
X255349Y692150D03*
X290751D03*
X255349Y819150D03*
X290751D03*
X255349Y793750D03*
X290751D03*
X255349Y768350D03*
X290751D03*
X255349Y895350D03*
X290751D03*
X255349Y869950D03*
X290751D03*
X255349Y844550D03*
X290751D03*
X255349Y971550D03*
X290751D03*
X255349Y946150D03*
X290751D03*
X255349Y920750D03*
X290751D03*
X255349Y996950D03*
X290751D03*
X712549Y438150D03*
X747951D03*
X712549Y412750D03*
X747951D03*
X712549Y514350D03*
X747951D03*
X712549Y488950D03*
X747951D03*
X712549Y463550D03*
X747951D03*
X712549Y590550D03*
X747951D03*
X712549Y565150D03*
X747951D03*
X712549Y539750D03*
X747951D03*
X712549Y666750D03*
X747951D03*
X712549Y641350D03*
X747951D03*
X712549Y742950D03*
X747951D03*
X712549Y717550D03*
X747951D03*
X712549Y692150D03*
X747951D03*
X712549Y819150D03*
X747951D03*
X712549Y793750D03*
X747951D03*
X712549Y768350D03*
X747951D03*
X712549Y895350D03*
X747951D03*
X712549Y869950D03*
X747951D03*
X712549Y844550D03*
X747951D03*
X712549Y971550D03*
X747951D03*
X712549Y946150D03*
X747951D03*
X712549Y920750D03*
X747951D03*
X712549Y996950D03*
X747951D03*
G54D12*
X361950Y1073150D03*
X514350Y1047750D03*
X463550Y1073150D03*
X615950Y1047750D03*
G54D13*
G01X323850Y349250D02*
Y393700D01*
M02*
