G04 ================== begin FILE IDENTIFICATION RECORD ==================*
G04 Layout Name:  P:/SEMESTRE8/PROJET HEXAPODE/PCB/PCB_SHIELD/shield_STM32F429.brd*
G04 Film Name:    BOTTOM*
G04 File Format:  Gerber RS274X*
G04 File Origin:  Cadence Allegro 16.6-2015-S051*
G04 Origin Date:  Fri May 19 10:32:59 2017*
G04 *
G04 Layer:  ETCH/BOTTOM*
G04 Layer:  PIN/BOTTOM*
G04 Layer:  VIA CLASS/BOTTOM*
G04 *
G04 Offset:    (0.00 0.00)*
G04 Mirror:    No*
G04 Mode:      Positive*
G04 Rotation:  0*
G04 FullContactRelief:  No*
G04 UndefLineWidth:     0.00*
G04 ================== end FILE IDENTIFICATION RECORD ====================*
%FSLAX51Y51*MOMM*%
%IR0*IPPOS*OFA0.00000B0.00000*MIA0B0*SFA1.00000B1.00000*%
%ADD11O,2.999994X1.500124*%
%ADD10C,2.199894*%
%ADD12C,.999998*%
%ADD14C,1.599946*%
%ADD13R,.6096X1.524*%
%ADD15C,.508*%
%ADD16C,1.016*%
G75*
%LPD*%
G75*
G36*
G01X0Y6D02*
Y749D01*
X692D01*
Y6D01*
X0D01*
G37*
%LPC*%
G75*
G36*
G01X117Y9D02*
X102D01*
G02Y29I0J10D01*
G01X117D01*
G02X126Y23I0J-10D01*
G03X128I1J0D01*
G02X137Y29I9J-4D01*
G01X152D01*
G02Y9I0J-10D01*
G01X137D01*
G02X128Y15I0J10D01*
G03X126I-1J0D01*
G02X117Y9I-9J4D01*
G37*
G36*
G01X574D02*
X559D01*
G02Y29I0J10D01*
G01X574D01*
G02X583Y23I0J-10D01*
G03X585I1J0D01*
G02X594Y29I9J-4D01*
G01X609D01*
G02Y9I0J-10D01*
G01X594D01*
G02X585Y15I0J10D01*
G03X583I-1J0D01*
G02X574Y9I-9J4D01*
G37*
G36*
G01X117Y34D02*
X102D01*
G02Y54I0J10D01*
G01X117D01*
G02X126Y48I0J-10D01*
G03X128I1J0D01*
G02X137Y54I9J-4D01*
G01X152D01*
G02Y34I0J-10D01*
G01X137D01*
G02X128Y41I0J10D01*
G03X126I-1J0D01*
G02X117Y34I-9J4D01*
G37*
G36*
G01X574D02*
X559D01*
G02Y54I0J10D01*
G01X574D01*
G02X583Y48I0J-10D01*
G03X585I1J0D01*
G02X594Y54I9J-4D01*
G01X609D01*
G02Y34I0J-10D01*
G01X594D01*
G02X585Y41I0J10D01*
G03X583I-1J0D01*
G02X574Y34I-9J4D01*
G37*
G36*
G01X117Y60D02*
X102D01*
G02Y80I0J10D01*
G01X117D01*
G02X126Y74I0J-10D01*
G03X128I1J0D01*
G02X137Y80I9J-4D01*
G01X152D01*
G02Y60I0J-10D01*
G01X137D01*
G02X128Y66I0J10D01*
G03X126I-1J0D01*
G02X117Y60I-9J4D01*
G37*
G36*
G01X574D02*
X559D01*
G02Y80I0J10D01*
G01X574D01*
G02X583Y74I0J-10D01*
G03X585I1J0D01*
G02X594Y80I9J-4D01*
G01X609D01*
G02Y60I0J-10D01*
G01X594D01*
G02X585Y66I0J10D01*
G03X583I-1J0D01*
G02X574Y60I-9J4D01*
G37*
G36*
G01X117Y85D02*
X102D01*
G02Y105I0J10D01*
G01X117D01*
G02X126Y99I0J-10D01*
G03X128I1J0D01*
G02X137Y105I9J-4D01*
G01X152D01*
G02Y85I0J-10D01*
G01X137D01*
G02X128Y91I0J10D01*
G03X126I-1J0D01*
G02X117Y85I-9J4D01*
G37*
G36*
G01X574D02*
X559D01*
G02Y105I0J10D01*
G01X574D01*
G02X583Y99I0J-10D01*
G03X585I1J0D01*
G02X594Y105I9J-4D01*
G01X609D01*
X613Y109D01*
G03X612Y111I-1J1D01*
G02X609Y111I-2J10D01*
G01X594D01*
G02X585Y117I0J10D01*
G03X583I-1J0D01*
G02X574Y111I-9J4D01*
G01X559D01*
G02Y131I0J10D01*
G01X574D01*
G02X583Y125I0J-10D01*
G03X585I1J0D01*
G02X594Y131I9J-4D01*
G01X609D01*
G02X619Y118I0J-10D01*
G03X621Y118I1J0D01*
G01X627Y124D01*
Y315D01*
X641Y328D01*
X641Y329D01*
G02X644Y339I13J1D01*
G03X643Y341I-1J1D01*
G01X638D01*
X619Y323D01*
G02X609Y314I-10J1D01*
G01X594D01*
G02X585Y320I0J10D01*
G03X583I-1J0D01*
G02X574Y314I-9J4D01*
G01X559D01*
G02Y334I0J10D01*
G01X574D01*
G02X583Y328I0J-10D01*
G03X585I1J0D01*
G02X594Y334I9J-4D01*
G01X609D01*
X613Y338D01*
G03X612Y339I-1J1D01*
G02X609Y339I-2J10D01*
G01X594D01*
G02X585Y345I0J10D01*
G03X583I-1J0D01*
G02X574Y339I-9J4D01*
G01X559D01*
G02Y359I0J10D01*
G01X574D01*
G02X583Y353I0J-10D01*
G03X585I1J0D01*
G02X594Y359I9J-4D01*
G01X609D01*
G02X619Y347I0J-10D01*
G03X621Y346I1J0D01*
G01X631Y356D01*
X641D01*
X641Y357D01*
G02X647Y367I13J-1D01*
G03Y369I0J1D01*
G02X643Y373I7J12D01*
G01X632D01*
X625Y367D01*
X616D01*
G02X609Y365I-7J8D01*
G01X594D01*
G02X585Y371I0J10D01*
G03X583I-1J0D01*
G02X574Y365I-9J4D01*
G01X559D01*
G02Y385I0J10D01*
G01X574D01*
G02X583Y379I0J-10D01*
G03X585I1J0D01*
G02X594Y385I9J-4D01*
G01X609D01*
G02X616Y382I0J-10D01*
G01X619Y382D01*
X625Y389D01*
X643D01*
G02X647Y393I11J-8D01*
G03Y395I0J1D01*
G02X643Y399I7J12D01*
G01X632D01*
X625Y392D01*
X616D01*
G02X609Y390I-7J8D01*
G01X594D01*
G02X585Y396I0J10D01*
G03X583I-1J0D01*
G02X574Y390I-9J4D01*
G01X559D01*
G02Y410I0J10D01*
G01X574D01*
G02X583Y404I0J-10D01*
G03X585I1J0D01*
G02X594Y410I9J-4D01*
G01X609D01*
G02X616Y408I0J-10D01*
G01X619Y408D01*
X625Y414D01*
X643D01*
G02X661Y395I11J-8D01*
G03Y393I0J-1D01*
G02Y369I-7J-12D01*
G03Y367I0J-1D01*
G02Y344I-7J-12D01*
G03Y342I0J-1D01*
G02Y318I-7J-12D01*
G03Y317I0J-1D01*
G02X644Y295I-7J-12D01*
G03X643Y295I-1J-1D01*
G01Y118D01*
X619Y94D01*
G02X609Y85I-10J1D01*
G01X594D01*
G02X585Y91I0J10D01*
G03X583I-1J0D01*
G02X574Y85I-9J4D01*
G37*
G36*
G01X117Y111D02*
X102D01*
G02Y131I0J10D01*
G01X117D01*
G02X126Y125I0J-10D01*
G03X128I1J0D01*
G02X137Y131I9J-4D01*
G01X152D01*
G02Y111I0J-10D01*
G01X137D01*
G02X128Y117I0J10D01*
G03X126I-1J0D01*
G02X117Y111I-9J4D01*
G37*
G36*
G01Y136D02*
X102D01*
G02Y156I0J10D01*
G01X117D01*
G02X126Y150I0J-10D01*
G03X128I1J0D01*
G02X137Y156I9J-4D01*
G01X152D01*
G02Y136I0J-10D01*
G01X137D01*
G02X128Y142I0J10D01*
G03X126I-1J0D01*
G02X117Y136I-9J4D01*
G37*
G36*
G01X574D02*
X559D01*
G02Y156I0J10D01*
G01X574D01*
G02X583Y150I0J-10D01*
G03X585I1J0D01*
G02X594Y156I9J-4D01*
G01X609D01*
G02Y136I0J-10D01*
G01X594D01*
G02X585Y142I0J10D01*
G03X583I-1J0D01*
G02X574Y136I-9J4D01*
G37*
G36*
G01X117Y161D02*
X102D01*
G02Y181I0J10D01*
G01X117D01*
G02X126Y175I0J-10D01*
G03X128I1J0D01*
G02X137Y181I9J-4D01*
G01X152D01*
G02Y161I0J-10D01*
G01X137D01*
G02X128Y168I0J10D01*
G03X126I-1J0D01*
G02X117Y161I-9J4D01*
G37*
G36*
G01X574D02*
X559D01*
G02Y181I0J10D01*
G01X574D01*
G02X583Y175I0J-10D01*
G03X585I1J0D01*
G02X594Y181I9J-4D01*
G01X609D01*
G02Y161I0J-10D01*
G01X594D01*
G02X585Y168I0J10D01*
G03X583I-1J0D01*
G02X574Y161I-9J4D01*
G37*
G36*
G01X117Y187D02*
X102D01*
G02Y207I0J10D01*
G01X117D01*
G02X126Y201I0J-10D01*
G03X128I1J0D01*
G02X137Y207I9J-4D01*
G01X152D01*
G02Y187I0J-10D01*
G01X137D01*
G02X128Y193I0J10D01*
G03X126I-1J0D01*
G02X117Y187I-9J4D01*
G37*
G36*
G01X574D02*
X559D01*
G02Y207I0J10D01*
G01X574D01*
G02X583Y201I0J-10D01*
G03X585I1J0D01*
G02X594Y207I9J-4D01*
G01X609D01*
G02Y187I0J-10D01*
G01X594D01*
G02X585Y193I0J10D01*
G03X583I-1J0D01*
G02X574Y187I-9J4D01*
G37*
G36*
G01X117Y212D02*
X102D01*
G02Y232I0J10D01*
G01X117D01*
G02X126Y226I0J-10D01*
G03X128I1J0D01*
G02X137Y232I9J-4D01*
G01X152D01*
G02Y212I0J-10D01*
G01X137D01*
G02X128Y218I0J10D01*
G03X126I-1J0D01*
G02X117Y212I-9J4D01*
G37*
G36*
G01X574D02*
X559D01*
G02Y232I0J10D01*
G01X574D01*
G02X583Y226I0J-10D01*
G03X585I1J0D01*
G02X594Y232I9J-4D01*
G01X609D01*
G02Y212I0J-10D01*
G01X594D01*
G02X585Y218I0J10D01*
G03X583I-1J0D01*
G02X574Y212I-9J4D01*
G37*
G36*
G01X117Y238D02*
X102D01*
G02Y258I0J10D01*
G01X117D01*
G02X126Y252I0J-10D01*
G03X128I1J0D01*
G02X137Y258I9J-4D01*
G01X152D01*
G02Y238I0J-10D01*
G01X137D01*
G02X128Y244I0J10D01*
G03X126I-1J0D01*
G02X117Y238I-9J4D01*
G37*
G36*
G01X574D02*
X559D01*
G02Y258I0J10D01*
G01X574D01*
G02X583Y252I0J-10D01*
G03X585I1J0D01*
G02X594Y258I9J-4D01*
G01X609D01*
G02Y238I0J-10D01*
G01X594D01*
G02X585Y244I0J10D01*
G03X583I-1J0D01*
G02X574Y238I-9J4D01*
G37*
G36*
G01X117Y263D02*
X102D01*
G02Y283I0J10D01*
G01X117D01*
G02X126Y277I0J-10D01*
G03X128I1J0D01*
G02X137Y283I9J-4D01*
G01X152D01*
G02Y263I0J-10D01*
G01X137D01*
G02X128Y269I0J10D01*
G03X126I-1J0D01*
G02X117Y263I-9J4D01*
G37*
G36*
G01X574D02*
X559D01*
G02Y283I0J10D01*
G01X574D01*
G02X583Y277I0J-10D01*
G03X585I1J0D01*
G02X594Y283I9J-4D01*
G01X609D01*
G02Y263I0J-10D01*
G01X594D01*
G02X585Y269I0J10D01*
G03X583I-1J0D01*
G02X574Y263I-9J4D01*
G37*
G36*
G01X117Y288D02*
X102D01*
G02Y308I0J10D01*
G01X117D01*
G02X126Y302I0J-10D01*
G03X128I1J0D01*
G02X137Y308I9J-4D01*
G01X152D01*
G02Y288I0J-10D01*
G01X137D01*
G02X128Y295I0J10D01*
G03X126I-1J0D01*
G02X117Y288I-9J4D01*
G37*
G36*
G01X574D02*
X559D01*
G02Y308I0J10D01*
G01X574D01*
G02X583Y302I0J-10D01*
G03X585I1J0D01*
G02X594Y308I9J-4D01*
G01X609D01*
G02Y288I0J-10D01*
G01X594D01*
G02X585Y295I0J10D01*
G03X583I-1J0D01*
G02X574Y288I-9J4D01*
G37*
G36*
G01X117Y314D02*
X102D01*
G02Y334I0J10D01*
G01X117D01*
G02X126Y328I0J-10D01*
G03X128I1J0D01*
G02X137Y334I9J-4D01*
G01X152D01*
G02Y314I0J-10D01*
G01X137D01*
G02X128Y320I0J10D01*
G03X126I-1J0D01*
G02X117Y314I-9J4D01*
G37*
G36*
G01Y339D02*
X102D01*
G02Y359I0J10D01*
G01X117D01*
G02X126Y353I0J-10D01*
G03X128I1J0D01*
G02X137Y359I9J-4D01*
G01X152D01*
G02Y339I0J-10D01*
G01X137D01*
G02X128Y345I0J10D01*
G03X126I-1J0D01*
G02X117Y339I-9J4D01*
G37*
G36*
G01Y365D02*
X102D01*
G02Y385I0J10D01*
G01X117D01*
G02X126Y379I0J-10D01*
G03X128I1J0D01*
G02X137Y385I9J-4D01*
G01X152D01*
G02Y365I0J-10D01*
G01X137D01*
G02X128Y371I0J10D01*
G03X126I-1J0D01*
G02X117Y365I-9J4D01*
G37*
G36*
G01X574Y415D02*
X559D01*
G02Y435I0J10D01*
G01X574D01*
G02X583Y429I0J-10D01*
G03X585I1J0D01*
G02X594Y435I9J-4D01*
G01X609D01*
G02Y415I0J-10D01*
G01X594D01*
G02X585Y422I0J10D01*
G03X583I-1J0D01*
G02X574Y415I-9J4D01*
G37*
G36*
G01X625Y437D02*
X542D01*
X528Y452D01*
Y486D01*
X541Y499D01*
X552D01*
G02X559Y502I7J-8D01*
G01X574D01*
G02X583Y495I0J-10D01*
G03X585I1J0D01*
G02X594Y502I9J-4D01*
G01X609D01*
G02Y481I0J-10D01*
G01X594D01*
G02X585Y488I0J10D01*
G03X583I-1J0D01*
G02X574Y481I-9J4D01*
G01X559D01*
G02X552Y484I0J10D01*
G01X547D01*
X543Y480D01*
Y458D01*
X549Y452D01*
X619D01*
X640Y473D01*
Y510D01*
G02X641Y533I8J11D01*
G03Y534I0J1D01*
G02X637Y538I7J12D01*
G01X632D01*
X628Y535D01*
X616D01*
G02X609Y532I-7J8D01*
G01X594D01*
G02X585Y538I0J10D01*
G03X583I-1J0D01*
G02X574Y532I-9J4D01*
G01X559D01*
G02Y552I0J10D01*
G01X574D01*
G02X583Y546I0J-10D01*
G03X585I1J0D01*
G02X594Y552I9J-4D01*
G01X609D01*
G02X616Y550I0J-10D01*
G01X622D01*
X626Y554D01*
X637D01*
G02X641Y558I11J-8D01*
G03Y560I0J1D01*
G02X637Y564I7J12D01*
G01X631D01*
X628Y560D01*
X616D01*
G02X609Y558I-7J8D01*
G01X594D01*
G02X585Y564I0J10D01*
G03X583I-1J0D01*
G02X574Y558I-9J4D01*
G01X559D01*
G02Y578I0J10D01*
G01X574D01*
G02X583Y572I0J-10D01*
G03X585I1J0D01*
G02X594Y578I9J-4D01*
G01X609D01*
G02X616Y575I0J-10D01*
G01X621D01*
X625Y579D01*
X637D01*
G02X641Y583I11J-8D01*
G03Y585I0J1D01*
G02X637Y589I7J12D01*
G01X631D01*
X628Y585D01*
X616D01*
G02X609Y583I-7J8D01*
G01X594D01*
G02X585Y589I0J10D01*
G03X583I-1J0D01*
G02X574Y583I-9J4D01*
G01X559D01*
G02Y603I0J10D01*
G01X574D01*
G02X583Y597I0J-10D01*
G03X585I1J0D01*
G02X594Y603I9J-4D01*
G01X609D01*
G02X616Y601I0J-10D01*
G01X621D01*
X625Y605D01*
X637D01*
G02X641Y609I11J-8D01*
G03Y610I0J1D01*
G02X654I7J12D01*
G03Y609I0J-1D01*
G02Y585I-7J-12D01*
G03Y583I0J-1D01*
G02Y560I-7J-12D01*
G03Y558I0J-1D01*
G02Y534I-7J-12D01*
G03Y533I0J-1D01*
G02X655Y510I-7J-12D01*
G01Y467D01*
X625Y437D01*
G37*
G36*
G01X574Y456D02*
X559D01*
G02Y476I0J10D01*
G01X574D01*
G02X583Y470I0J-10D01*
G03X585I1J0D01*
G02X594Y476I9J-4D01*
G01X609D01*
G02Y456I0J-10D01*
G01X594D01*
G02X585Y462I0J10D01*
G03X583I-1J0D01*
G02X574Y456I-9J4D01*
G37*
G36*
G01Y507D02*
X559D01*
G02Y527I0J10D01*
G01X574D01*
G02X583Y521I0J-10D01*
G03X585I1J0D01*
G02X594Y527I9J-4D01*
G01X609D01*
G02Y507I0J-10D01*
G01X594D01*
G02X585Y513I0J10D01*
G03X583I-1J0D01*
G02X574Y507I-9J4D01*
G37*
G36*
G01X422Y170D02*
X289D01*
X202Y257D01*
Y371D01*
X219Y389D01*
X290D01*
X306Y373D01*
Y360D01*
G02X303Y354I-8J0D01*
G01Y353D01*
X301D01*
G02X299Y353I-2J7D01*
G03X299Y351I0J-1D01*
G01X312Y351D01*
X323Y361D01*
Y380D01*
X311Y392D01*
X98D01*
X73Y367D01*
X29D01*
X13Y383D01*
Y417D01*
X29Y433D01*
X40D01*
G02X43Y437I11J-8D01*
G01Y440D01*
G02Y462I8J11D01*
G01Y465D01*
G02X40Y469I8J11D01*
G01X36D01*
X18Y487D01*
Y518D01*
X35Y535D01*
X74D01*
G03X75Y536I0J1D01*
G01X69Y543D01*
Y615D01*
X90Y636D01*
X162D01*
X185Y613D01*
Y547D01*
X191Y541D01*
X265D01*
X278Y554D01*
Y556D01*
X269D01*
Y561D01*
G03X267Y561I-1J0D01*
G02X265Y559I-6J4D01*
G01Y556D01*
X256D01*
Y559D01*
G02X253Y565I4J6D01*
G01Y582D01*
X345Y674D01*
X402D01*
G02X406Y679I11J-8D01*
G03Y680I0J1D01*
G02X419I7J12D01*
G03Y679I0J-1D01*
G02X424Y674I-7J-12D01*
G01X454D01*
X524Y744D01*
X606D01*
X643Y708D01*
Y677D01*
X628Y662D01*
X616D01*
G02X609Y659I-7J8D01*
G01X594D01*
G02X585Y665I0J10D01*
G03X583I-1J0D01*
G02X574Y659I-9J4D01*
G01X559D01*
G02Y679I0J10D01*
G01X574D01*
G02X583Y673I0J-10D01*
G03X585I1J0D01*
G02X594Y679I9J-4D01*
G01X609D01*
G02X616Y677I0J-10D01*
G01X621D01*
X627Y683D01*
Y702D01*
X600Y729D01*
X530D01*
X460Y659D01*
X424D01*
G02X419Y655I-11J8D01*
G03Y653I0J-1D01*
G02X424Y649I-7J-12D01*
G01X460D01*
X537Y725D01*
X577D01*
X598Y705D01*
X609D01*
G02Y685I0J-10D01*
G01X594D01*
G02X585Y691I0J10D01*
G03X583I-1J0D01*
G02X574Y685I-9J4D01*
G01X559D01*
G02Y705I0J10D01*
G01X574D01*
G02X575Y705I0J-10D01*
G01X576Y705D01*
X571Y710D01*
X543D01*
X467Y634D01*
X424D01*
G02X419Y630I-11J8D01*
G03Y628I0J-1D01*
G02X424Y624I-7J-12D01*
G01X473D01*
X501Y652D01*
X552D01*
G02X559Y654I7J-8D01*
G01X574D01*
G02X583Y648I0J-10D01*
G03X585I1J0D01*
G02X594Y654I9J-4D01*
G01X609D01*
G02Y634I0J-10D01*
G01X594D01*
G02X585Y640I0J10D01*
G03X583I-1J0D01*
G02X574Y634I-9J4D01*
G01X559D01*
G02X552Y636I0J10D01*
G01X507D01*
X479Y608D01*
X424D01*
G02X419Y604I-11J8D01*
G03Y602I0J-1D01*
G02X424Y598I-7J-12D01*
G01X486D01*
X514Y626D01*
X552D01*
G02X559Y629I7J-8D01*
G01X574D01*
G02X583Y622I0J-10D01*
G03X585I1J0D01*
G02X594Y629I9J-4D01*
G01X609D01*
G02Y608I0J-10D01*
G01X594D01*
G02X585Y615I0J10D01*
G03X583I-1J0D01*
G02X574Y608I-9J4D01*
G01X559D01*
G02X552Y611I0J10D01*
G01X520D01*
X492Y583D01*
X424D01*
G02X420Y579I-11J8D01*
G01Y549D01*
X503Y467D01*
Y251D01*
X422Y170D01*
G37*
%LPD*%
G75*
G36*
G01X314Y217D02*
X249Y283D01*
Y335D01*
X268Y354D01*
G02X269Y354I0J0D01*
G01Y353D01*
X278D01*
Y350D01*
X293Y335D01*
X318D01*
X338Y355D01*
Y387D01*
X317Y408D01*
X92D01*
X67Y382D01*
X35D01*
X28Y389D01*
Y410D01*
X35Y418D01*
X40D01*
G03X44Y414I11J8D01*
G02Y412I0J-1D01*
G03X57I7J-12D01*
G02Y414I0J1D01*
G03X58Y437I-7J12D01*
G01Y440D01*
G03Y462I-8J11D01*
G01Y465D01*
G03X57Y488I-8J11D01*
G02Y490I0J1D01*
G03X62Y494I-7J12D01*
G01X95D01*
G03X102Y492I7J8D01*
G01X117D01*
G03X126Y498I0J10D01*
G02X128I1J0D01*
G03X137Y492I9J4D01*
G01X152D01*
G03Y512I0J10D01*
G01X137D01*
G03X128Y506I0J-10D01*
G02X126I-1J0D01*
G03X117Y512I-9J-4D01*
G01X102D01*
G03X95Y509I0J-10D01*
G01X62D01*
G03X44Y490I-11J-8D01*
G02Y488I0J-1D01*
G03X41Y486I7J-12D01*
G02X40Y486I-1J1D01*
G01X33Y493D01*
Y511D01*
X41Y519D01*
X95D01*
G03X102Y517I7J8D01*
G01X117D01*
G03X126Y523I0J10D01*
G02X128I1J0D01*
G03X137Y517I9J4D01*
G01X152D01*
G03Y537I0J10D01*
G01X137D01*
G03X128Y531I0J-10D01*
G02X126I-1J0D01*
G03X117Y537I-9J-4D01*
G01X102D01*
G03X97Y536I0J-10D01*
G01X84Y549D01*
Y609D01*
X96Y621D01*
X156D01*
X170Y606D01*
Y540D01*
X185Y526D01*
X271D01*
X293Y548D01*
Y556D01*
X303D01*
Y559D01*
G03X306Y565I-4J6D01*
G01Y576D01*
X364Y634D01*
X402D01*
G03X406Y630I11J8D01*
G02Y628I0J-1D01*
G03X402Y624I7J-12D01*
G01X391D01*
X373Y606D01*
Y543D01*
X462Y454D01*
Y276D01*
X403Y217D01*
X314D01*
G37*
G36*
G01X277Y366D02*
Y371D01*
X269D01*
Y366D01*
G03X268Y366I4J-5D01*
G02X267Y366I-1J1D01*
G03X265Y368I-6J-4D01*
G01Y371D01*
X256D01*
Y368D01*
G03X253Y362I4J-6D01*
G01Y361D01*
X234Y341D01*
Y276D01*
X308Y202D01*
X410D01*
X478Y270D01*
Y460D01*
X389Y549D01*
Y600D01*
X397Y608D01*
X402D01*
G03X406Y604I11J8D01*
G02Y602I0J-1D01*
G03X405Y579I7J-12D01*
G01Y543D01*
X488Y460D01*
Y257D01*
X416Y185D01*
X295D01*
X217Y264D01*
Y365D01*
X225Y373D01*
X284D01*
X285Y373D01*
G02X284Y371I-1J-1D01*
G01X281D01*
Y368D01*
G03X279Y366I4J-6D01*
G02X278Y366I-1J1D01*
G03X277Y366I-5J-4D01*
G37*
G36*
G01X277Y570D02*
Y574D01*
X268D01*
Y576D01*
X351Y659D01*
X402D01*
G03X406Y655I11J8D01*
G02Y653I0J-1D01*
G03X402Y649I7J-12D01*
G01X358D01*
X291Y582D01*
Y574D01*
X281D01*
Y571D01*
G03X279Y569I4J-6D01*
G02X277Y570I-1J1D01*
G37*
%LPC*%
G75*
G36*
G01X117Y415D02*
X102D01*
G02Y435I0J10D01*
G01X117D01*
G02X126Y429I0J-10D01*
G03X128I1J0D01*
G02X137Y435I9J-4D01*
G01X152D01*
G02Y415I0J-10D01*
G01X137D01*
G02X128Y422I0J10D01*
G03X126I-1J0D01*
G02X117Y415I-9J4D01*
G37*
G36*
G01Y441D02*
X102D01*
G02Y461I0J10D01*
G01X117D01*
G02X126Y455I0J-10D01*
G03X128I1J0D01*
G02X137Y461I9J-4D01*
G01X152D01*
G02Y441I0J-10D01*
G01X137D01*
G02X128Y447I0J10D01*
G03X126I-1J0D01*
G02X117Y441I-9J4D01*
G37*
G36*
G01Y466D02*
X102D01*
G02Y486I0J10D01*
G01X117D01*
G02X126Y480I0J-10D01*
G03X128I1J0D01*
G02X137Y486I9J-4D01*
G01X152D01*
G02Y466I0J-10D01*
G01X137D01*
G02X128Y472I0J10D01*
G03X126I-1J0D01*
G02X117Y466I-9J4D01*
G37*
G36*
G01Y542D02*
X102D01*
G02Y562I0J10D01*
G01X117D01*
G02X126Y556I0J-10D01*
G03X128I1J0D01*
G02X137Y562I9J-4D01*
G01X152D01*
G02Y542I0J-10D01*
G01X137D01*
G02X128Y549I0J10D01*
G03X126I-1J0D01*
G02X117Y542I-9J4D01*
G37*
G36*
G01Y568D02*
X102D01*
G02Y588I0J10D01*
G01X117D01*
G02X126Y582I0J-10D01*
G03X128I1J0D01*
G02X137Y588I9J-4D01*
G01X152D01*
G02Y568I0J-10D01*
G01X137D01*
G02X128Y574I0J10D01*
G03X126I-1J0D01*
G02X117Y568I-9J4D01*
G37*
G36*
G01Y593D02*
X102D01*
G02Y613I0J10D01*
G01X117D01*
G02X126Y607I0J-10D01*
G03X128I1J0D01*
G02X137Y613I9J-4D01*
G01X152D01*
G02Y593I0J-10D01*
G01X137D01*
G02X128Y599I0J10D01*
G03X126I-1J0D01*
G02X117Y593I-9J4D01*
G37*
G36*
G01X401Y242D02*
G02X386Y227I-8J-7D01*
G01X321D01*
X265Y283D01*
Y299D01*
X256D01*
Y317D01*
X265D01*
Y313D01*
G03X267Y312I1J0D01*
G02X269Y314I6J-4D01*
G01Y317D01*
X277D01*
Y314D01*
G02X279Y313I-4J-6D01*
G03X280I1J1D01*
G02X281Y314I6J-5D01*
G01Y317D01*
X290D01*
Y314D01*
G02X292Y312I-4J-6D01*
G03X294Y313I1J1D01*
G01Y317D01*
X303D01*
Y299D01*
X293D01*
Y297D01*
X304Y287D01*
X333D01*
X383Y337D01*
G02X401Y344I11J0D01*
G01X427D01*
G02X432Y348I11J-8D01*
G03Y350I0J1D01*
G02Y374I7J12D01*
G03Y376I0J1D01*
G02X427Y380I7J12D01*
G01X413D01*
X406Y386D01*
X401D01*
G02X386Y401I-7J8D01*
G01Y422D01*
X359Y450D01*
X302D01*
X265Y486D01*
Y502D01*
X256D01*
Y520D01*
X265D01*
Y516D01*
G03X267Y515I1J0D01*
G02X269Y518I6J-4D01*
G01Y520D01*
X277D01*
Y518D01*
G02X279Y516I-4J-6D01*
G03X280I1J1D01*
G02X281Y518I6J-5D01*
G01Y520D01*
X290D01*
Y518D01*
G02X292Y515I-4J-6D01*
G03X294Y516I1J1D01*
G01Y520D01*
X303D01*
Y503D01*
X386D01*
G02X401Y488I7J-8D01*
G01Y460D01*
X436Y426D01*
G02X445Y401I3J-13D01*
G03Y399I0J-1D01*
G02Y376I-7J-12D01*
G03Y374I0J-1D01*
G02Y350I-7J-12D01*
G03Y348I0J-1D01*
G02Y325I-7J-12D01*
G03Y323I0J-1D01*
G02X436Y298I-7J-12D01*
G01X401Y264D01*
Y242D01*
G37*
%LPD*%
G75*
G36*
G01X340Y272D02*
X394Y326D01*
G03X401Y329I0J11D01*
G01X427D01*
G03X432Y325I11J8D01*
G02Y323I0J-1D01*
G03X425Y309I7J-12D01*
G01X386Y270D01*
Y243D01*
X327D01*
X300Y270D01*
G02X300Y272I1J1D01*
G01X340D01*
G37*
G36*
G01X386Y488D02*
Y454D01*
X425Y415D01*
G03X432Y401I13J-3D01*
G02Y399I0J-1D01*
G03X427Y395I7J-12D01*
G01X419D01*
X412Y401D01*
X401D01*
Y429D01*
X365Y465D01*
X308D01*
X281Y492D01*
Y496D01*
G02X282Y497I1J0D01*
G01X290Y490D01*
X291D01*
X293Y488D01*
X386D01*
G37*
G54D10*
X51Y400D03*
Y425D03*
Y451D03*
Y476D03*
Y502D03*
X413Y591D03*
Y616D03*
Y641D03*
Y667D03*
Y692D03*
X438Y311D03*
Y337D03*
Y362D03*
Y387D03*
Y413D03*
X654Y305D03*
Y330D03*
Y356D03*
Y381D03*
Y406D03*
X648Y521D03*
Y546D03*
Y572D03*
Y597D03*
Y622D03*
G54D11*
X109Y19D03*
Y44D03*
Y70D03*
Y95D03*
Y121D03*
Y146D03*
Y171D03*
Y197D03*
Y222D03*
Y248D03*
Y273D03*
Y298D03*
Y324D03*
Y349D03*
Y375D03*
Y425D03*
Y451D03*
Y476D03*
Y502D03*
Y527D03*
Y552D03*
Y578D03*
Y603D03*
X145Y19D03*
Y44D03*
Y70D03*
Y95D03*
Y121D03*
Y146D03*
Y171D03*
Y197D03*
Y222D03*
Y248D03*
Y273D03*
Y298D03*
Y324D03*
Y349D03*
Y375D03*
Y425D03*
Y451D03*
Y476D03*
Y502D03*
Y527D03*
Y552D03*
Y578D03*
Y603D03*
X566Y19D03*
Y44D03*
Y70D03*
Y95D03*
Y121D03*
Y146D03*
Y171D03*
Y197D03*
Y222D03*
Y248D03*
Y273D03*
Y298D03*
Y324D03*
Y349D03*
Y375D03*
Y400D03*
Y425D03*
Y466D03*
Y491D03*
Y517D03*
Y542D03*
Y568D03*
Y593D03*
Y618D03*
Y644D03*
Y669D03*
Y695D03*
X602Y19D03*
Y44D03*
Y70D03*
Y95D03*
Y121D03*
Y146D03*
Y171D03*
Y197D03*
Y222D03*
Y248D03*
Y273D03*
Y298D03*
Y324D03*
Y349D03*
Y375D03*
Y400D03*
Y425D03*
Y466D03*
Y491D03*
Y517D03*
Y542D03*
Y568D03*
Y593D03*
Y618D03*
Y644D03*
Y669D03*
Y695D03*
G54D12*
X190Y375D03*
Y432D03*
X273Y362D03*
G54D13*
X260Y308D03*
Y362D03*
Y511D03*
Y565D03*
X273Y308D03*
X286D03*
X298D03*
Y362D03*
X286D03*
X273D03*
Y511D03*
X286D03*
X298D03*
Y565D03*
X286D03*
X273D03*
G54D14*
X394Y235D03*
Y337D03*
Y394D03*
Y495D03*
G54D15*
G01X37Y400D02*
X51D01*
G01D02*
X65D01*
G01X51Y386D02*
Y400D01*
G01X91Y476D02*
X114D01*
G01D02*
Y487D01*
G01Y466D02*
Y476D01*
G01X273Y565D02*
Y575D01*
G01Y556D02*
Y565D01*
G01X413Y692D02*
X427D01*
G01X399D02*
X413D01*
G01D02*
Y706D01*
G01X438Y362D02*
X452D01*
G01X424D02*
X438D01*
G01X648Y622D02*
X662D01*
G01X634D02*
X648D01*
G01D02*
Y636D01*
G01X654Y305D02*
X668D01*
G01X654Y291D02*
Y305D01*
G54D16*
G01X286Y362D02*
Y353D01*
X296Y343D01*
X315D01*
X330Y358D01*
Y384D01*
X314Y400D01*
X95D01*
X70Y375D01*
X32D01*
X20Y386D01*
Y414D01*
X32Y425D01*
X51D01*
G01X95Y527D02*
X38D01*
X25Y514D01*
Y490D01*
X39Y476D01*
X51D01*
G01D02*
Y451D01*
G01Y425D02*
Y451D01*
G01Y502D02*
X114D01*
G01X286Y565D02*
Y551D01*
X268Y533D01*
X188D01*
X178Y544D01*
Y610D01*
X159Y629D01*
X93D01*
X76Y612D01*
Y546D01*
X95Y527D01*
G01D02*
X114D01*
G01X413Y591D02*
Y546D01*
X495Y464D01*
Y254D01*
X419Y178D01*
X292D01*
X210Y260D01*
Y368D01*
X222Y381D01*
X287D01*
X298Y370D01*
Y362D01*
G01X394Y235D02*
X324D01*
X273Y286D01*
Y308D01*
G01X260Y362D02*
Y357D01*
X241Y338D01*
Y279D01*
X311Y210D01*
X406D01*
X470Y273D01*
Y457D01*
X381Y546D01*
Y603D01*
X394Y616D01*
X413D01*
G01X273Y511D02*
Y489D01*
X305Y457D01*
X362D01*
X394Y425D01*
Y394D01*
G01X260Y565D02*
Y579D01*
X348Y667D01*
X413D01*
G01X394Y337D02*
X337Y279D01*
X300D01*
X286Y294D01*
Y308D01*
G01X273Y362D02*
Y343D01*
G01X298Y362D02*
Y360D01*
G01X394Y495D02*
X296D01*
X294Y497D01*
X293D01*
X289Y501D01*
Y502D01*
X286Y505D01*
Y511D01*
G01X298Y565D02*
Y579D01*
X361Y641D01*
X413D01*
G01X394Y235D02*
Y267D01*
X438Y311D01*
G01X394Y394D02*
X409D01*
X416Y387D01*
X438D01*
G01X394Y337D02*
X438D01*
G01X394Y495D02*
Y457D01*
X438Y413D01*
G01X572Y618D02*
X517D01*
X489Y591D01*
X413D01*
G01X597Y695D02*
X574Y718D01*
X540D01*
X464Y641D01*
X413D01*
G01Y667D02*
X457D01*
X527Y737D01*
X603D01*
X635Y705D01*
Y680D01*
X625Y669D01*
X597D01*
G01X572Y644D02*
X504D01*
X476Y616D01*
X413D01*
G01X648Y521D02*
Y470D01*
X622Y444D01*
X546D01*
X535Y455D01*
Y483D01*
X544Y491D01*
X572D01*
G01X654Y330D02*
X653D01*
X635Y312D01*
Y121D01*
X609Y95D01*
X597D01*
G01X654Y381D02*
X629D01*
X622Y375D01*
X597D01*
G01X654Y356D02*
X647Y349D01*
X634D01*
X609Y324D01*
X597D01*
G01X654Y406D02*
X629D01*
X622Y400D01*
X597D01*
G01X648Y597D02*
X628D01*
X625Y593D01*
X597D01*
G01X648Y572D02*
X628D01*
X625Y568D01*
X597D01*
G01X648Y546D02*
X629D01*
X625Y542D01*
X597D01*
M02*
